<svg xml:space="preserve"
     xmlns="http://www.w3.org/2000/svg"
     xmlns:xlink="http://www.w3.org/1999/xlink"
     xmlns:html="http://www.w3.org/1999/xhtml"
id="beatles-anthology-downloads-by-day-day" x="0px" y="0px"
width="1920.000000px" height="1080.000000px"
viewBox="0 0 1920.000000 1080.000000" enable-background="new 0 0 1920.000000 1080.000000" role="img">
<title>
beatles-anthology-downloads-by-day-day
</title>
<desc>
Daily series for beatles-anthology: upeers_total solid, useeds_total dashed.
</desc>
<title>
beatles-anthology-downloads-by-day-day
</title>
 <g id="annotations">
<text x="960.000000" y="126.000000" font-family="Atkinson Hyperlegible" font-size="26.000000pt" text-anchor="middle" text-align="center" font-weight="600" font-style="normal"  style="fill:rgb(118,118,118); fill-opacity:1; stroke:rgb(118,118,118); stroke-opacity:0; stroke-width:0.5"> beatles-anthology downloads by day</text>
 <g id="axes-lines">
<text x="960.000000" y="1007.000000" font-family="Atkinson Hyperlegible" font-size="18.000000pt" text-anchor="middle" text-align="center" font-weight="500" font-style="normal"  style="fill:rgb(118,118,118); fill-opacity:1; stroke:rgb(118,118,118); stroke-opacity:0; stroke-width:0.5"> DAY</text>
<text x="73.000000" y="540.000000" font-family="Atkinson Hyperlegible" font-size="18.000000pt" text-anchor="middle" text-align="center" dominant-baseline="central" font-weight="500" font-style="normal"  style="fill:rgb(118,118,118); fill-opacity:1; stroke:rgb(118,118,118); stroke-opacity:0; stroke-width:0.5" transform="rotate(-90,73,540)"> DOWNLOADERS</text>
 </g>
 <g id="tic-y-label-lines">
<line x1="218.000000" y1="806.752656" x2="1702.000000" y2="806.752656" style="fill:rgb(0,0,255); fill-opacity:0; stroke:rgb(242,242,242); stroke-opacity:1; stroke-width:4" />
<line x1="218.000000" y1="738.752656" x2="1702.000000" y2="738.752656" style="fill:rgb(0,0,255); fill-opacity:0; stroke:rgb(242,242,242); stroke-opacity:1; stroke-width:4" />
<line x1="218.000000" y1="670.752656" x2="1702.000000" y2="670.752656" style="fill:rgb(0,0,255); fill-opacity:0; stroke:rgb(242,242,242); stroke-opacity:1; stroke-width:4" />
<line x1="218.000000" y1="602.752656" x2="1702.000000" y2="602.752656" style="fill:rgb(0,0,255); fill-opacity:0; stroke:rgb(242,242,242); stroke-opacity:1; stroke-width:4" />
<line x1="218.000000" y1="534.752656" x2="1702.000000" y2="534.752656" style="fill:rgb(0,0,255); fill-opacity:0; stroke:rgb(242,242,242); stroke-opacity:1; stroke-width:4" />
<line x1="218.000000" y1="466.752656" x2="1702.000000" y2="466.752656" style="fill:rgb(0,0,255); fill-opacity:0; stroke:rgb(242,242,242); stroke-opacity:1; stroke-width:4" />
<line x1="218.000000" y1="398.752656" x2="1702.000000" y2="398.752656" style="fill:rgb(0,0,255); fill-opacity:0; stroke:rgb(242,242,242); stroke-opacity:1; stroke-width:4" />
<line x1="218.000000" y1="330.752656" x2="1702.000000" y2="330.752656" style="fill:rgb(0,0,255); fill-opacity:0; stroke:rgb(242,242,242); stroke-opacity:1; stroke-width:4" />
<line x1="218.000000" y1="262.752656" x2="1702.000000" y2="262.752656" style="fill:rgb(0,0,255); fill-opacity:0; stroke:rgb(242,242,242); stroke-opacity:1; stroke-width:4" />
<line x1="218.000000" y1="194.752656" x2="1702.000000" y2="194.752656" style="fill:rgb(0,0,255); fill-opacity:0; stroke:rgb(242,242,242); stroke-opacity:1; stroke-width:4" />
 </g>
 <g id="tic-x-labels">
<text x="200.000000" y="898.000000" font-family="Atkinson Hyperlegible" font-size="14.000000pt" text-anchor="middle" text-align="center" dominant-baseline="central" font-weight="400" font-style="normal"  style="fill:rgb(118,118,118); fill-opacity:1; stroke:rgb(118,118,118); stroke-opacity:0; stroke-width:0.5"> 1</text>
<text x="273.076923" y="898.000000" font-family="Atkinson Hyperlegible" font-size="14.000000pt" text-anchor="middle" text-align="center" dominant-baseline="central" font-weight="400" font-style="normal"  style="fill:rgb(118,118,118); fill-opacity:1; stroke:rgb(118,118,118); stroke-opacity:0; stroke-width:0.5"> 6</text>
<text x="346.153846" y="898.000000" font-family="Atkinson Hyperlegible" font-size="14.000000pt" text-anchor="middle" text-align="center" dominant-baseline="central" font-weight="400" font-style="normal"  style="fill:rgb(118,118,118); fill-opacity:1; stroke:rgb(118,118,118); stroke-opacity:0; stroke-width:0.5"> 11</text>
<text x="419.230769" y="898.000000" font-family="Atkinson Hyperlegible" font-size="14.000000pt" text-anchor="middle" text-align="center" dominant-baseline="central" font-weight="400" font-style="normal"  style="fill:rgb(118,118,118); fill-opacity:1; stroke:rgb(118,118,118); stroke-opacity:0; stroke-width:0.5"> 16</text>
<text x="492.307692" y="898.000000" font-family="Atkinson Hyperlegible" font-size="14.000000pt" text-anchor="middle" text-align="center" dominant-baseline="central" font-weight="400" font-style="normal"  style="fill:rgb(118,118,118); fill-opacity:1; stroke:rgb(118,118,118); stroke-opacity:0; stroke-width:0.5"> 21</text>
<text x="565.384615" y="898.000000" font-family="Atkinson Hyperlegible" font-size="14.000000pt" text-anchor="middle" text-align="center" dominant-baseline="central" font-weight="400" font-style="normal"  style="fill:rgb(118,118,118); fill-opacity:1; stroke:rgb(118,118,118); stroke-opacity:0; stroke-width:0.5"> 26</text>
<text x="638.461538" y="898.000000" font-family="Atkinson Hyperlegible" font-size="14.000000pt" text-anchor="middle" text-align="center" dominant-baseline="central" font-weight="400" font-style="normal"  style="fill:rgb(118,118,118); fill-opacity:1; stroke:rgb(118,118,118); stroke-opacity:0; stroke-width:0.5"> 31</text>
<text x="711.538462" y="898.000000" font-family="Atkinson Hyperlegible" font-size="14.000000pt" text-anchor="middle" text-align="center" dominant-baseline="central" font-weight="400" font-style="normal"  style="fill:rgb(118,118,118); fill-opacity:1; stroke:rgb(118,118,118); stroke-opacity:0; stroke-width:0.5"> 36</text>
<text x="784.615385" y="898.000000" font-family="Atkinson Hyperlegible" font-size="14.000000pt" text-anchor="middle" text-align="center" dominant-baseline="central" font-weight="400" font-style="normal"  style="fill:rgb(118,118,118); fill-opacity:1; stroke:rgb(118,118,118); stroke-opacity:0; stroke-width:0.5"> 41</text>
<text x="857.692308" y="898.000000" font-family="Atkinson Hyperlegible" font-size="14.000000pt" text-anchor="middle" text-align="center" dominant-baseline="central" font-weight="400" font-style="normal"  style="fill:rgb(118,118,118); fill-opacity:1; stroke:rgb(118,118,118); stroke-opacity:0; stroke-width:0.5"> 46</text>
<text x="930.769231" y="898.000000" font-family="Atkinson Hyperlegible" font-size="14.000000pt" text-anchor="middle" text-align="center" dominant-baseline="central" font-weight="400" font-style="normal"  style="fill:rgb(118,118,118); fill-opacity:1; stroke:rgb(118,118,118); stroke-opacity:0; stroke-width:0.5"> 51</text>
<text x="1003.846154" y="898.000000" font-family="Atkinson Hyperlegible" font-size="14.000000pt" text-anchor="middle" text-align="center" dominant-baseline="central" font-weight="400" font-style="normal"  style="fill:rgb(118,118,118); fill-opacity:1; stroke:rgb(118,118,118); stroke-opacity:0; stroke-width:0.5"> 56</text>
<text x="1076.923077" y="898.000000" font-family="Atkinson Hyperlegible" font-size="14.000000pt" text-anchor="middle" text-align="center" dominant-baseline="central" font-weight="400" font-style="normal"  style="fill:rgb(118,118,118); fill-opacity:1; stroke:rgb(118,118,118); stroke-opacity:0; stroke-width:0.5"> 61</text>
<text x="1150.000000" y="898.000000" font-family="Atkinson Hyperlegible" font-size="14.000000pt" text-anchor="middle" text-align="center" dominant-baseline="central" font-weight="400" font-style="normal"  style="fill:rgb(118,118,118); fill-opacity:1; stroke:rgb(118,118,118); stroke-opacity:0; stroke-width:0.5"> 66</text>
<text x="1223.076923" y="898.000000" font-family="Atkinson Hyperlegible" font-size="14.000000pt" text-anchor="middle" text-align="center" dominant-baseline="central" font-weight="400" font-style="normal"  style="fill:rgb(118,118,118); fill-opacity:1; stroke:rgb(118,118,118); stroke-opacity:0; stroke-width:0.5"> 71</text>
<text x="1296.153846" y="898.000000" font-family="Atkinson Hyperlegible" font-size="14.000000pt" text-anchor="middle" text-align="center" dominant-baseline="central" font-weight="400" font-style="normal"  style="fill:rgb(118,118,118); fill-opacity:1; stroke:rgb(118,118,118); stroke-opacity:0; stroke-width:0.5"> 76</text>
<text x="1369.230769" y="898.000000" font-family="Atkinson Hyperlegible" font-size="14.000000pt" text-anchor="middle" text-align="center" dominant-baseline="central" font-weight="400" font-style="normal"  style="fill:rgb(118,118,118); fill-opacity:1; stroke:rgb(118,118,118); stroke-opacity:0; stroke-width:0.5"> 81</text>
<text x="1442.307692" y="898.000000" font-family="Atkinson Hyperlegible" font-size="14.000000pt" text-anchor="middle" text-align="center" dominant-baseline="central" font-weight="400" font-style="normal"  style="fill:rgb(118,118,118); fill-opacity:1; stroke:rgb(118,118,118); stroke-opacity:0; stroke-width:0.5"> 86</text>
<text x="1515.384615" y="898.000000" font-family="Atkinson Hyperlegible" font-size="14.000000pt" text-anchor="middle" text-align="center" dominant-baseline="central" font-weight="400" font-style="normal"  style="fill:rgb(118,118,118); fill-opacity:1; stroke:rgb(118,118,118); stroke-opacity:0; stroke-width:0.5"> 91</text>
<text x="1588.461538" y="898.000000" font-family="Atkinson Hyperlegible" font-size="14.000000pt" text-anchor="middle" text-align="center" dominant-baseline="central" font-weight="400" font-style="normal"  style="fill:rgb(118,118,118); fill-opacity:1; stroke:rgb(118,118,118); stroke-opacity:0; stroke-width:0.5"> 96</text>
<text x="1661.538462" y="898.000000" font-family="Atkinson Hyperlegible" font-size="14.000000pt" text-anchor="middle" text-align="center" dominant-baseline="central" font-weight="400" font-style="normal"  style="fill:rgb(118,118,118); fill-opacity:1; stroke:rgb(118,118,118); stroke-opacity:0; stroke-width:0.5"> 101</text>
 </g>
 <g id="tic-y-labels">
<text x="164.000000" y="876.752656" font-family="Atkinson Hyperlegible" font-size="14.000000pt" text-anchor="middle" text-align="center" dominant-baseline="central" font-weight="400" font-style="normal"  style="fill:rgb(118,118,118); fill-opacity:1; stroke:rgb(118,118,118); stroke-opacity:0; stroke-width:0.5"> 1k</text>
<text x="1756.000000" y="876.752656" font-family="Atkinson Hyperlegible" font-size="14.000000pt" text-anchor="middle" text-align="center" dominant-baseline="central" font-weight="400" font-style="normal"  style="fill:rgb(118,118,118); fill-opacity:1; stroke:rgb(118,118,118); stroke-opacity:0; stroke-width:0.5"> 1k</text>
<text x="164.000000" y="808.752656" font-family="Atkinson Hyperlegible" font-size="14.000000pt" text-anchor="middle" text-align="center" dominant-baseline="central" font-weight="400" font-style="normal"  style="fill:rgb(118,118,118); fill-opacity:1; stroke:rgb(118,118,118); stroke-opacity:0; stroke-width:0.5"> 19k</text>
<text x="1756.000000" y="808.752656" font-family="Atkinson Hyperlegible" font-size="14.000000pt" text-anchor="middle" text-align="center" dominant-baseline="central" font-weight="400" font-style="normal"  style="fill:rgb(118,118,118); fill-opacity:1; stroke:rgb(118,118,118); stroke-opacity:0; stroke-width:0.5"> 19k</text>
<text x="164.000000" y="740.752656" font-family="Atkinson Hyperlegible" font-size="14.000000pt" text-anchor="middle" text-align="center" dominant-baseline="central" font-weight="400" font-style="normal"  style="fill:rgb(118,118,118); fill-opacity:1; stroke:rgb(118,118,118); stroke-opacity:0; stroke-width:0.5"> 36k</text>
<text x="1756.000000" y="740.752656" font-family="Atkinson Hyperlegible" font-size="14.000000pt" text-anchor="middle" text-align="center" dominant-baseline="central" font-weight="400" font-style="normal"  style="fill:rgb(118,118,118); fill-opacity:1; stroke:rgb(118,118,118); stroke-opacity:0; stroke-width:0.5"> 36k</text>
<text x="164.000000" y="672.752656" font-family="Atkinson Hyperlegible" font-size="14.000000pt" text-anchor="middle" text-align="center" dominant-baseline="central" font-weight="400" font-style="normal"  style="fill:rgb(118,118,118); fill-opacity:1; stroke:rgb(118,118,118); stroke-opacity:0; stroke-width:0.5"> 54k</text>
<text x="1756.000000" y="672.752656" font-family="Atkinson Hyperlegible" font-size="14.000000pt" text-anchor="middle" text-align="center" dominant-baseline="central" font-weight="400" font-style="normal"  style="fill:rgb(118,118,118); fill-opacity:1; stroke:rgb(118,118,118); stroke-opacity:0; stroke-width:0.5"> 54k</text>
<text x="164.000000" y="604.752656" font-family="Atkinson Hyperlegible" font-size="14.000000pt" text-anchor="middle" text-align="center" dominant-baseline="central" font-weight="400" font-style="normal"  style="fill:rgb(118,118,118); fill-opacity:1; stroke:rgb(118,118,118); stroke-opacity:0; stroke-width:0.5"> 72k</text>
<text x="1756.000000" y="604.752656" font-family="Atkinson Hyperlegible" font-size="14.000000pt" text-anchor="middle" text-align="center" dominant-baseline="central" font-weight="400" font-style="normal"  style="fill:rgb(118,118,118); fill-opacity:1; stroke:rgb(118,118,118); stroke-opacity:0; stroke-width:0.5"> 72k</text>
<text x="164.000000" y="536.752656" font-family="Atkinson Hyperlegible" font-size="14.000000pt" text-anchor="middle" text-align="center" dominant-baseline="central" font-weight="400" font-style="normal"  style="fill:rgb(118,118,118); fill-opacity:1; stroke:rgb(118,118,118); stroke-opacity:0; stroke-width:0.5"> 89k</text>
<text x="1756.000000" y="536.752656" font-family="Atkinson Hyperlegible" font-size="14.000000pt" text-anchor="middle" text-align="center" dominant-baseline="central" font-weight="400" font-style="normal"  style="fill:rgb(118,118,118); fill-opacity:1; stroke:rgb(118,118,118); stroke-opacity:0; stroke-width:0.5"> 89k</text>
<text x="164.000000" y="468.752656" font-family="Atkinson Hyperlegible" font-size="14.000000pt" text-anchor="middle" text-align="center" dominant-baseline="central" font-weight="400" font-style="normal"  style="fill:rgb(118,118,118); fill-opacity:1; stroke:rgb(118,118,118); stroke-opacity:0; stroke-width:0.5"> 107k</text>
<text x="1756.000000" y="468.752656" font-family="Atkinson Hyperlegible" font-size="14.000000pt" text-anchor="middle" text-align="center" dominant-baseline="central" font-weight="400" font-style="normal"  style="fill:rgb(118,118,118); fill-opacity:1; stroke:rgb(118,118,118); stroke-opacity:0; stroke-width:0.5"> 107k</text>
<text x="164.000000" y="400.752656" font-family="Atkinson Hyperlegible" font-size="14.000000pt" text-anchor="middle" text-align="center" dominant-baseline="central" font-weight="400" font-style="normal"  style="fill:rgb(118,118,118); fill-opacity:1; stroke:rgb(118,118,118); stroke-opacity:0; stroke-width:0.5"> 125k</text>
<text x="1756.000000" y="400.752656" font-family="Atkinson Hyperlegible" font-size="14.000000pt" text-anchor="middle" text-align="center" dominant-baseline="central" font-weight="400" font-style="normal"  style="fill:rgb(118,118,118); fill-opacity:1; stroke:rgb(118,118,118); stroke-opacity:0; stroke-width:0.5"> 125k</text>
<text x="164.000000" y="332.752656" font-family="Atkinson Hyperlegible" font-size="14.000000pt" text-anchor="middle" text-align="center" dominant-baseline="central" font-weight="400" font-style="normal"  style="fill:rgb(118,118,118); fill-opacity:1; stroke:rgb(118,118,118); stroke-opacity:0; stroke-width:0.5"> 143k</text>
<text x="1756.000000" y="332.752656" font-family="Atkinson Hyperlegible" font-size="14.000000pt" text-anchor="middle" text-align="center" dominant-baseline="central" font-weight="400" font-style="normal"  style="fill:rgb(118,118,118); fill-opacity:1; stroke:rgb(118,118,118); stroke-opacity:0; stroke-width:0.5"> 143k</text>
<text x="164.000000" y="264.752656" font-family="Atkinson Hyperlegible" font-size="14.000000pt" text-anchor="middle" text-align="center" dominant-baseline="central" font-weight="400" font-style="normal"  style="fill:rgb(118,118,118); fill-opacity:1; stroke:rgb(118,118,118); stroke-opacity:0; stroke-width:0.5"> 160k</text>
<text x="1756.000000" y="264.752656" font-family="Atkinson Hyperlegible" font-size="14.000000pt" text-anchor="middle" text-align="center" dominant-baseline="central" font-weight="400" font-style="normal"  style="fill:rgb(118,118,118); fill-opacity:1; stroke:rgb(118,118,118); stroke-opacity:0; stroke-width:0.5"> 160k</text>
<text x="164.000000" y="196.752656" font-family="Atkinson Hyperlegible" font-size="14.000000pt" text-anchor="middle" text-align="center" dominant-baseline="central" font-weight="400" font-style="normal"  style="fill:rgb(118,118,118); fill-opacity:1; stroke:rgb(118,118,118); stroke-opacity:0; stroke-width:0.5"> 178k</text>
<text x="1756.000000" y="196.752656" font-family="Atkinson Hyperlegible" font-size="14.000000pt" text-anchor="middle" text-align="center" dominant-baseline="central" font-weight="400" font-style="normal"  style="fill:rgb(118,118,118); fill-opacity:1; stroke:rgb(118,118,118); stroke-opacity:0; stroke-width:0.5"> 178k</text>
 </g>
 </g>
 <g id="weekend-bands-beatles-anthology downloads by day">
<rect x="229.230769" y="200.000000" width="29.230769" height="680.000000"
 style="fill:rgb(148,148,148); fill-opacity:0.15; stroke:rgb(148,148,148); stroke-opacity:0; stroke-width:0" />
<rect x="331.538462" y="200.000000" width="29.230769" height="680.000000"
 style="fill:rgb(148,148,148); fill-opacity:0.15; stroke:rgb(148,148,148); stroke-opacity:0; stroke-width:0" />
<rect x="433.846154" y="200.000000" width="29.230769" height="680.000000"
 style="fill:rgb(148,148,148); fill-opacity:0.15; stroke:rgb(148,148,148); stroke-opacity:0; stroke-width:0" />
<rect x="536.153846" y="200.000000" width="29.230769" height="680.000000"
 style="fill:rgb(148,148,148); fill-opacity:0.15; stroke:rgb(148,148,148); stroke-opacity:0; stroke-width:0" />
<rect x="638.461538" y="200.000000" width="29.230769" height="680.000000"
 style="fill:rgb(148,148,148); fill-opacity:0.15; stroke:rgb(148,148,148); stroke-opacity:0; stroke-width:0" />
<rect x="740.769231" y="200.000000" width="29.230769" height="680.000000"
 style="fill:rgb(148,148,148); fill-opacity:0.15; stroke:rgb(148,148,148); stroke-opacity:0; stroke-width:0" />
<rect x="843.076923" y="200.000000" width="29.230769" height="680.000000"
 style="fill:rgb(148,148,148); fill-opacity:0.15; stroke:rgb(148,148,148); stroke-opacity:0; stroke-width:0" />
<rect x="945.384615" y="200.000000" width="29.230769" height="680.000000"
 style="fill:rgb(148,148,148); fill-opacity:0.15; stroke:rgb(148,148,148); stroke-opacity:0; stroke-width:0" />
<rect x="1047.692308" y="200.000000" width="29.230769" height="680.000000"
 style="fill:rgb(148,148,148); fill-opacity:0.15; stroke:rgb(148,148,148); stroke-opacity:0; stroke-width:0" />
<rect x="1150.000000" y="200.000000" width="29.230769" height="680.000000"
 style="fill:rgb(148,148,148); fill-opacity:0.15; stroke:rgb(148,148,148); stroke-opacity:0; stroke-width:0" />
<rect x="1252.307692" y="200.000000" width="29.230769" height="680.000000"
 style="fill:rgb(148,148,148); fill-opacity:0.15; stroke:rgb(148,148,148); stroke-opacity:0; stroke-width:0" />
<rect x="1354.615385" y="200.000000" width="29.230769" height="680.000000"
 style="fill:rgb(148,148,148); fill-opacity:0.15; stroke:rgb(148,148,148); stroke-opacity:0; stroke-width:0" />
<rect x="1456.923077" y="200.000000" width="29.230769" height="680.000000"
 style="fill:rgb(148,148,148); fill-opacity:0.15; stroke:rgb(148,148,148); stroke-opacity:0; stroke-width:0" />
<rect x="1559.230769" y="200.000000" width="29.230769" height="680.000000"
 style="fill:rgb(148,148,148); fill-opacity:0.15; stroke:rgb(148,148,148); stroke-opacity:0; stroke-width:0" />
<rect x="1661.538462" y="200.000000" width="29.230769" height="680.000000"
 style="fill:rgb(148,148,148); fill-opacity:0.15; stroke:rgb(148,148,148); stroke-opacity:0; stroke-width:0" />
 </g>
 <g id="polyline-beatles-anthology downloads by day">
<polyline points="200,859.39 214.615,762.711 229.231,704.332 243.846,621.207 258.462,571.171 273.077,549.612 287.692,529.758 302.308,500.551 316.923,492.776 331.538,490.791 346.154,406.111 360.769,390.861 375.385,311.71 390,302.879 404.615,299.466 419.231,370.293 433.846,420.513 448.462,399.369 463.077,424.967 477.692,379.78 492.308,369.452 506.923,326.269 521.538,291.806 536.154,344.273 550.769,316.855 565.385,374.336 580,561.303 594.615,659.018 609.231,355.983 623.846,325.847 638.462,376.463 653.077,386.054 667.692,382.065 682.308,378.532 696.923,394.543 711.538,396.217 726.154,297.381 740.769,339.926 755.385,330.834 770,338.613 784.615,318.264 799.231,352.466 813.846,314.444 828.462,249.38 843.077,282.207 857.692,268.404 872.308,334.048 886.923,356.709 901.538,344.219 916.154,292.896 930.769,372.366 945.385,368.196 960,415.092 974.615,309.598 989.231,351.725 1003.85,272.789 1018.46,236.026 1033.08,248.719 1047.69,267.352 1062.31,200 1076.92,247.725 1091.54,299.562 1106.15,305.843 1120.77,312.205 1135.38,319.354 1150,373.456 1164.62,275.296 1179.23,289.733 1193.85,349.656 1208.46,336.325 1223.08,272.071 1237.69,285.233 1252.31,334.574 1266.92,299.239 1281.54,230.628 1296.15,305.271 1310.77,334.067 1325.38,348.684 1340,354.562 1354.62,325.974 1369.23,274.467 1383.85,221.14 1398.46,331.36 1413.08,319.285 1427.69,267.279 1442.31,217.554 1456.92,218.568 1471.54,257.85 1486.15,261.267 1500.77,304.142 1515.38,321.312 1530,311.422 1544.62,325.213 1559.23,364.084 1573.85,359.208 1588.46,384.606 1603.08,380.498 1617.69,400.782 1632.31,370.108 1646.92,384.376 1661.54,390.373 1676.15,391.544 1690.77,352.666 1705.38,314.513 1720,296.202 "  style="fill:rgb(0,0,255); fill-opacity:0; stroke:rgb(0,0,255); stroke-opacity:1; stroke-width:4" />
 </g>
 <g id="polyline-beatles-anthology downloads by day uploaders">
<polyline points="200,880 214.615,875.316 229.231,874.97 243.846,869.296 258.462,868.443 273.077,868.109 287.692,867.913 302.308,866.831 316.923,867.756 331.538,867.307 346.154,866.339 360.769,866.654 375.385,867.683 390,868.197 404.615,867.468 419.231,868.013 433.846,867.126 448.462,867.491 463.077,868.109 477.692,869.05 492.308,869.722 506.923,870.021 521.538,869.944 536.154,870.351 550.769,870.332 565.385,870.827 580,870.609 594.615,870.962 609.231,871.373 623.846,871.43 638.462,871.146 653.077,869.818 667.692,870.171 682.308,870.321 696.923,870.156 711.538,870.72 726.154,871.096 740.769,870.286 755.385,870.643 770,870.363 784.615,871.054 799.231,871.407 813.846,871.419 828.462,871.814 843.077,871.979 857.692,871.833 872.308,872.121 886.923,872.582 901.538,872.486 916.154,872.371 930.769,871.968 945.385,872.31 960,872.317 974.615,872.448 989.231,872.67 1003.85,871.68 1018.46,872.179 1033.08,872.033 1047.69,871.91 1062.31,872.068 1076.92,871.906 1091.54,871.787 1106.15,871.868 1120.77,872.294 1135.38,872.836 1150,872.348 1164.62,871.849 1179.23,871.807 1193.85,872.609 1208.46,872.997 1223.08,871.776 1237.69,872.037 1252.31,872.862 1266.92,872.478 1281.54,871.162 1296.15,871.734 1310.77,873.219 1325.38,873.312 1340,873.212 1354.62,872.974 1369.23,872.981 1383.85,873.039 1398.46,872.958 1413.08,872.678 1427.69,872.655 1442.31,872.659 1456.92,872.651 1471.54,872.64 1486.15,872.628 1500.77,872.955 1515.38,872.578 1530,872.751 1544.62,873.304 1559.23,873.116 1573.85,873.231 1588.46,873.189 1603.08,873.335 1617.69,872.855 1632.31,873.799 1646.92,873.304 1661.54,873.327 1676.15,873.542 1690.77,873.577 1705.38,873.292 1720,873.561 " stroke-dasharray="5 15"  style="fill:rgb(0,0,255); fill-opacity:0; stroke:rgb(0,0,255); stroke-opacity:1; stroke-width:4" />
 </g>
</svg>
