<svg xml:space="preserve"
     xmlns="http://www.w3.org/2000/svg"
     xmlns:xlink="http://www.w3.org/1999/xlink"
     xmlns:html="http://www.w3.org/1999/xhtml"
id="eyes-of-wakanda-01-downloads-by-day-day" x="0px" y="0px"
width="1920.000000px" height="1080.000000px"
viewBox="0 0 1920.000000 1080.000000" enable-background="new 0 0 1920.000000 1080.000000" role="img">
<title>
eyes-of-wakanda-01-downloads-by-day-day
</title>
<desc>
Daily series for eyes-of-wakanda-01: upeers_total solid, useeds_total dashed.
</desc>
<title>
eyes-of-wakanda-01-downloads-by-day-day
</title>
 <g id="annotations">
<text x="960.000000" y="126.000000" font-family="Atkinson Hyperlegible" font-size="26.000000pt" text-anchor="middle" text-align="center" font-weight="600" font-style="normal"  style="fill:rgb(118,118,118); fill-opacity:1; stroke:rgb(118,118,118); stroke-opacity:0; stroke-width:0.5"> eyes-of-wakanda-01 downloads by day</text>
 <g id="axes-lines">
<text x="960.000000" y="1007.000000" font-family="Atkinson Hyperlegible" font-size="18.000000pt" text-anchor="middle" text-align="center" font-weight="500" font-style="normal"  style="fill:rgb(118,118,118); fill-opacity:1; stroke:rgb(118,118,118); stroke-opacity:0; stroke-width:0.5"> DAY</text>
<text x="73.000000" y="540.000000" font-family="Atkinson Hyperlegible" font-size="18.000000pt" text-anchor="middle" text-align="center" dominant-baseline="central" font-weight="500" font-style="normal"  style="fill:rgb(118,118,118); fill-opacity:1; stroke:rgb(118,118,118); stroke-opacity:0; stroke-width:0.5" transform="rotate(-90,73,540)"> DOWNLOADERS</text>
 </g>
 <g id="tic-y-label-lines">
<line x1="218.000000" y1="803.702495" x2="1702.000000" y2="803.702495" style="fill:rgb(0,0,255); fill-opacity:0; stroke:rgb(242,242,242); stroke-opacity:1; stroke-width:4" />
<line x1="218.000000" y1="735.702495" x2="1702.000000" y2="735.702495" style="fill:rgb(0,0,255); fill-opacity:0; stroke:rgb(242,242,242); stroke-opacity:1; stroke-width:4" />
<line x1="218.000000" y1="667.702495" x2="1702.000000" y2="667.702495" style="fill:rgb(0,0,255); fill-opacity:0; stroke:rgb(242,242,242); stroke-opacity:1; stroke-width:4" />
<line x1="218.000000" y1="599.702495" x2="1702.000000" y2="599.702495" style="fill:rgb(0,0,255); fill-opacity:0; stroke:rgb(242,242,242); stroke-opacity:1; stroke-width:4" />
<line x1="218.000000" y1="531.702495" x2="1702.000000" y2="531.702495" style="fill:rgb(0,0,255); fill-opacity:0; stroke:rgb(242,242,242); stroke-opacity:1; stroke-width:4" />
<line x1="218.000000" y1="463.702495" x2="1702.000000" y2="463.702495" style="fill:rgb(0,0,255); fill-opacity:0; stroke:rgb(242,242,242); stroke-opacity:1; stroke-width:4" />
<line x1="218.000000" y1="395.702495" x2="1702.000000" y2="395.702495" style="fill:rgb(0,0,255); fill-opacity:0; stroke:rgb(242,242,242); stroke-opacity:1; stroke-width:4" />
<line x1="218.000000" y1="327.702495" x2="1702.000000" y2="327.702495" style="fill:rgb(0,0,255); fill-opacity:0; stroke:rgb(242,242,242); stroke-opacity:1; stroke-width:4" />
<line x1="218.000000" y1="259.702495" x2="1702.000000" y2="259.702495" style="fill:rgb(0,0,255); fill-opacity:0; stroke:rgb(242,242,242); stroke-opacity:1; stroke-width:4" />
<line x1="218.000000" y1="191.702495" x2="1702.000000" y2="191.702495" style="fill:rgb(0,0,255); fill-opacity:0; stroke:rgb(242,242,242); stroke-opacity:1; stroke-width:4" />
 </g>
 <g id="tic-x-labels">
<text x="200.000000" y="898.000000" font-family="Atkinson Hyperlegible" font-size="14.000000pt" text-anchor="middle" text-align="center" dominant-baseline="central" font-weight="400" font-style="normal"  style="fill:rgb(118,118,118); fill-opacity:1; stroke:rgb(118,118,118); stroke-opacity:0; stroke-width:0.5"> 1</text>
<text x="275.580110" y="898.000000" font-family="Atkinson Hyperlegible" font-size="14.000000pt" text-anchor="middle" text-align="center" dominant-baseline="central" font-weight="400" font-style="normal"  style="fill:rgb(118,118,118); fill-opacity:1; stroke:rgb(118,118,118); stroke-opacity:0; stroke-width:0.5"> 10</text>
<text x="351.160221" y="898.000000" font-family="Atkinson Hyperlegible" font-size="14.000000pt" text-anchor="middle" text-align="center" dominant-baseline="central" font-weight="400" font-style="normal"  style="fill:rgb(118,118,118); fill-opacity:1; stroke:rgb(118,118,118); stroke-opacity:0; stroke-width:0.5"> 19</text>
<text x="426.740331" y="898.000000" font-family="Atkinson Hyperlegible" font-size="14.000000pt" text-anchor="middle" text-align="center" dominant-baseline="central" font-weight="400" font-style="normal"  style="fill:rgb(118,118,118); fill-opacity:1; stroke:rgb(118,118,118); stroke-opacity:0; stroke-width:0.5"> 28</text>
<text x="502.320442" y="898.000000" font-family="Atkinson Hyperlegible" font-size="14.000000pt" text-anchor="middle" text-align="center" dominant-baseline="central" font-weight="400" font-style="normal"  style="fill:rgb(118,118,118); fill-opacity:1; stroke:rgb(118,118,118); stroke-opacity:0; stroke-width:0.5"> 37</text>
<text x="577.900552" y="898.000000" font-family="Atkinson Hyperlegible" font-size="14.000000pt" text-anchor="middle" text-align="center" dominant-baseline="central" font-weight="400" font-style="normal"  style="fill:rgb(118,118,118); fill-opacity:1; stroke:rgb(118,118,118); stroke-opacity:0; stroke-width:0.5"> 46</text>
<text x="653.480663" y="898.000000" font-family="Atkinson Hyperlegible" font-size="14.000000pt" text-anchor="middle" text-align="center" dominant-baseline="central" font-weight="400" font-style="normal"  style="fill:rgb(118,118,118); fill-opacity:1; stroke:rgb(118,118,118); stroke-opacity:0; stroke-width:0.5"> 55</text>
<text x="729.060773" y="898.000000" font-family="Atkinson Hyperlegible" font-size="14.000000pt" text-anchor="middle" text-align="center" dominant-baseline="central" font-weight="400" font-style="normal"  style="fill:rgb(118,118,118); fill-opacity:1; stroke:rgb(118,118,118); stroke-opacity:0; stroke-width:0.5"> 64</text>
<text x="804.640884" y="898.000000" font-family="Atkinson Hyperlegible" font-size="14.000000pt" text-anchor="middle" text-align="center" dominant-baseline="central" font-weight="400" font-style="normal"  style="fill:rgb(118,118,118); fill-opacity:1; stroke:rgb(118,118,118); stroke-opacity:0; stroke-width:0.5"> 73</text>
<text x="880.220994" y="898.000000" font-family="Atkinson Hyperlegible" font-size="14.000000pt" text-anchor="middle" text-align="center" dominant-baseline="central" font-weight="400" font-style="normal"  style="fill:rgb(118,118,118); fill-opacity:1; stroke:rgb(118,118,118); stroke-opacity:0; stroke-width:0.5"> 82</text>
<text x="955.801105" y="898.000000" font-family="Atkinson Hyperlegible" font-size="14.000000pt" text-anchor="middle" text-align="center" dominant-baseline="central" font-weight="400" font-style="normal"  style="fill:rgb(118,118,118); fill-opacity:1; stroke:rgb(118,118,118); stroke-opacity:0; stroke-width:0.5"> 91</text>
<text x="1031.381215" y="898.000000" font-family="Atkinson Hyperlegible" font-size="14.000000pt" text-anchor="middle" text-align="center" dominant-baseline="central" font-weight="400" font-style="normal"  style="fill:rgb(118,118,118); fill-opacity:1; stroke:rgb(118,118,118); stroke-opacity:0; stroke-width:0.5"> 100</text>
<text x="1106.961326" y="898.000000" font-family="Atkinson Hyperlegible" font-size="14.000000pt" text-anchor="middle" text-align="center" dominant-baseline="central" font-weight="400" font-style="normal"  style="fill:rgb(118,118,118); fill-opacity:1; stroke:rgb(118,118,118); stroke-opacity:0; stroke-width:0.5"> 109</text>
<text x="1182.541436" y="898.000000" font-family="Atkinson Hyperlegible" font-size="14.000000pt" text-anchor="middle" text-align="center" dominant-baseline="central" font-weight="400" font-style="normal"  style="fill:rgb(118,118,118); fill-opacity:1; stroke:rgb(118,118,118); stroke-opacity:0; stroke-width:0.5"> 118</text>
<text x="1258.121547" y="898.000000" font-family="Atkinson Hyperlegible" font-size="14.000000pt" text-anchor="middle" text-align="center" dominant-baseline="central" font-weight="400" font-style="normal"  style="fill:rgb(118,118,118); fill-opacity:1; stroke:rgb(118,118,118); stroke-opacity:0; stroke-width:0.5"> 127</text>
<text x="1333.701657" y="898.000000" font-family="Atkinson Hyperlegible" font-size="14.000000pt" text-anchor="middle" text-align="center" dominant-baseline="central" font-weight="400" font-style="normal"  style="fill:rgb(118,118,118); fill-opacity:1; stroke:rgb(118,118,118); stroke-opacity:0; stroke-width:0.5"> 136</text>
<text x="1409.281768" y="898.000000" font-family="Atkinson Hyperlegible" font-size="14.000000pt" text-anchor="middle" text-align="center" dominant-baseline="central" font-weight="400" font-style="normal"  style="fill:rgb(118,118,118); fill-opacity:1; stroke:rgb(118,118,118); stroke-opacity:0; stroke-width:0.5"> 145</text>
<text x="1484.861878" y="898.000000" font-family="Atkinson Hyperlegible" font-size="14.000000pt" text-anchor="middle" text-align="center" dominant-baseline="central" font-weight="400" font-style="normal"  style="fill:rgb(118,118,118); fill-opacity:1; stroke:rgb(118,118,118); stroke-opacity:0; stroke-width:0.5"> 154</text>
<text x="1560.441989" y="898.000000" font-family="Atkinson Hyperlegible" font-size="14.000000pt" text-anchor="middle" text-align="center" dominant-baseline="central" font-weight="400" font-style="normal"  style="fill:rgb(118,118,118); fill-opacity:1; stroke:rgb(118,118,118); stroke-opacity:0; stroke-width:0.5"> 163</text>
<text x="1636.022099" y="898.000000" font-family="Atkinson Hyperlegible" font-size="14.000000pt" text-anchor="middle" text-align="center" dominant-baseline="central" font-weight="400" font-style="normal"  style="fill:rgb(118,118,118); fill-opacity:1; stroke:rgb(118,118,118); stroke-opacity:0; stroke-width:0.5"> 172</text>
<text x="1711.602210" y="898.000000" font-family="Atkinson Hyperlegible" font-size="14.000000pt" text-anchor="middle" text-align="center" dominant-baseline="central" font-weight="400" font-style="normal"  style="fill:rgb(118,118,118); fill-opacity:1; stroke:rgb(118,118,118); stroke-opacity:0; stroke-width:0.5"> 181</text>
 </g>
 <g id="tic-y-labels">
<text x="164.000000" y="873.702495" font-family="Atkinson Hyperlegible" font-size="14.000000pt" text-anchor="middle" text-align="center" dominant-baseline="central" font-weight="400" font-style="normal"  style="fill:rgb(118,118,118); fill-opacity:1; stroke:rgb(118,118,118); stroke-opacity:0; stroke-width:0.5"> 3k</text>
<text x="1756.000000" y="873.702495" font-family="Atkinson Hyperlegible" font-size="14.000000pt" text-anchor="middle" text-align="center" dominant-baseline="central" font-weight="400" font-style="normal"  style="fill:rgb(118,118,118); fill-opacity:1; stroke:rgb(118,118,118); stroke-opacity:0; stroke-width:0.5"> 3k</text>
<text x="164.000000" y="805.702495" font-family="Atkinson Hyperlegible" font-size="14.000000pt" text-anchor="middle" text-align="center" dominant-baseline="central" font-weight="400" font-style="normal"  style="fill:rgb(118,118,118); fill-opacity:1; stroke:rgb(118,118,118); stroke-opacity:0; stroke-width:0.5"> 34k</text>
<text x="1756.000000" y="805.702495" font-family="Atkinson Hyperlegible" font-size="14.000000pt" text-anchor="middle" text-align="center" dominant-baseline="central" font-weight="400" font-style="normal"  style="fill:rgb(118,118,118); fill-opacity:1; stroke:rgb(118,118,118); stroke-opacity:0; stroke-width:0.5"> 34k</text>
<text x="164.000000" y="737.702495" font-family="Atkinson Hyperlegible" font-size="14.000000pt" text-anchor="middle" text-align="center" dominant-baseline="central" font-weight="400" font-style="normal"  style="fill:rgb(118,118,118); fill-opacity:1; stroke:rgb(118,118,118); stroke-opacity:0; stroke-width:0.5"> 64k</text>
<text x="1756.000000" y="737.702495" font-family="Atkinson Hyperlegible" font-size="14.000000pt" text-anchor="middle" text-align="center" dominant-baseline="central" font-weight="400" font-style="normal"  style="fill:rgb(118,118,118); fill-opacity:1; stroke:rgb(118,118,118); stroke-opacity:0; stroke-width:0.5"> 64k</text>
<text x="164.000000" y="669.702495" font-family="Atkinson Hyperlegible" font-size="14.000000pt" text-anchor="middle" text-align="center" dominant-baseline="central" font-weight="400" font-style="normal"  style="fill:rgb(118,118,118); fill-opacity:1; stroke:rgb(118,118,118); stroke-opacity:0; stroke-width:0.5"> 95k</text>
<text x="1756.000000" y="669.702495" font-family="Atkinson Hyperlegible" font-size="14.000000pt" text-anchor="middle" text-align="center" dominant-baseline="central" font-weight="400" font-style="normal"  style="fill:rgb(118,118,118); fill-opacity:1; stroke:rgb(118,118,118); stroke-opacity:0; stroke-width:0.5"> 95k</text>
<text x="164.000000" y="601.702495" font-family="Atkinson Hyperlegible" font-size="14.000000pt" text-anchor="middle" text-align="center" dominant-baseline="central" font-weight="400" font-style="normal"  style="fill:rgb(118,118,118); fill-opacity:1; stroke:rgb(118,118,118); stroke-opacity:0; stroke-width:0.5"> 126k</text>
<text x="1756.000000" y="601.702495" font-family="Atkinson Hyperlegible" font-size="14.000000pt" text-anchor="middle" text-align="center" dominant-baseline="central" font-weight="400" font-style="normal"  style="fill:rgb(118,118,118); fill-opacity:1; stroke:rgb(118,118,118); stroke-opacity:0; stroke-width:0.5"> 126k</text>
<text x="164.000000" y="533.702495" font-family="Atkinson Hyperlegible" font-size="14.000000pt" text-anchor="middle" text-align="center" dominant-baseline="central" font-weight="400" font-style="normal"  style="fill:rgb(118,118,118); fill-opacity:1; stroke:rgb(118,118,118); stroke-opacity:0; stroke-width:0.5"> 157k</text>
<text x="1756.000000" y="533.702495" font-family="Atkinson Hyperlegible" font-size="14.000000pt" text-anchor="middle" text-align="center" dominant-baseline="central" font-weight="400" font-style="normal"  style="fill:rgb(118,118,118); fill-opacity:1; stroke:rgb(118,118,118); stroke-opacity:0; stroke-width:0.5"> 157k</text>
<text x="164.000000" y="465.702495" font-family="Atkinson Hyperlegible" font-size="14.000000pt" text-anchor="middle" text-align="center" dominant-baseline="central" font-weight="400" font-style="normal"  style="fill:rgb(118,118,118); fill-opacity:1; stroke:rgb(118,118,118); stroke-opacity:0; stroke-width:0.5"> 187k</text>
<text x="1756.000000" y="465.702495" font-family="Atkinson Hyperlegible" font-size="14.000000pt" text-anchor="middle" text-align="center" dominant-baseline="central" font-weight="400" font-style="normal"  style="fill:rgb(118,118,118); fill-opacity:1; stroke:rgb(118,118,118); stroke-opacity:0; stroke-width:0.5"> 187k</text>
<text x="164.000000" y="397.702495" font-family="Atkinson Hyperlegible" font-size="14.000000pt" text-anchor="middle" text-align="center" dominant-baseline="central" font-weight="400" font-style="normal"  style="fill:rgb(118,118,118); fill-opacity:1; stroke:rgb(118,118,118); stroke-opacity:0; stroke-width:0.5"> 218k</text>
<text x="1756.000000" y="397.702495" font-family="Atkinson Hyperlegible" font-size="14.000000pt" text-anchor="middle" text-align="center" dominant-baseline="central" font-weight="400" font-style="normal"  style="fill:rgb(118,118,118); fill-opacity:1; stroke:rgb(118,118,118); stroke-opacity:0; stroke-width:0.5"> 218k</text>
<text x="164.000000" y="329.702495" font-family="Atkinson Hyperlegible" font-size="14.000000pt" text-anchor="middle" text-align="center" dominant-baseline="central" font-weight="400" font-style="normal"  style="fill:rgb(118,118,118); fill-opacity:1; stroke:rgb(118,118,118); stroke-opacity:0; stroke-width:0.5"> 249k</text>
<text x="1756.000000" y="329.702495" font-family="Atkinson Hyperlegible" font-size="14.000000pt" text-anchor="middle" text-align="center" dominant-baseline="central" font-weight="400" font-style="normal"  style="fill:rgb(118,118,118); fill-opacity:1; stroke:rgb(118,118,118); stroke-opacity:0; stroke-width:0.5"> 249k</text>
<text x="164.000000" y="261.702495" font-family="Atkinson Hyperlegible" font-size="14.000000pt" text-anchor="middle" text-align="center" dominant-baseline="central" font-weight="400" font-style="normal"  style="fill:rgb(118,118,118); fill-opacity:1; stroke:rgb(118,118,118); stroke-opacity:0; stroke-width:0.5"> 280k</text>
<text x="1756.000000" y="261.702495" font-family="Atkinson Hyperlegible" font-size="14.000000pt" text-anchor="middle" text-align="center" dominant-baseline="central" font-weight="400" font-style="normal"  style="fill:rgb(118,118,118); fill-opacity:1; stroke:rgb(118,118,118); stroke-opacity:0; stroke-width:0.5"> 280k</text>
<text x="164.000000" y="193.702495" font-family="Atkinson Hyperlegible" font-size="14.000000pt" text-anchor="middle" text-align="center" dominant-baseline="central" font-weight="400" font-style="normal"  style="fill:rgb(118,118,118); fill-opacity:1; stroke:rgb(118,118,118); stroke-opacity:0; stroke-width:0.5"> 310k</text>
<text x="1756.000000" y="193.702495" font-family="Atkinson Hyperlegible" font-size="14.000000pt" text-anchor="middle" text-align="center" dominant-baseline="central" font-weight="400" font-style="normal"  style="fill:rgb(118,118,118); fill-opacity:1; stroke:rgb(118,118,118); stroke-opacity:0; stroke-width:0.5"> 310k</text>
 </g>
 </g>
 <g id="weekend-bands-eyes-of-wakanda-01 downloads by day">
<rect x="200.000000" y="200.000000" width="16.795580" height="680.000000"
 style="fill:rgb(148,148,148); fill-opacity:0.15; stroke:rgb(148,148,148); stroke-opacity:0; stroke-width:0" />
<rect x="258.784530" y="200.000000" width="16.795580" height="680.000000"
 style="fill:rgb(148,148,148); fill-opacity:0.15; stroke:rgb(148,148,148); stroke-opacity:0; stroke-width:0" />
<rect x="317.569061" y="200.000000" width="16.795580" height="680.000000"
 style="fill:rgb(148,148,148); fill-opacity:0.15; stroke:rgb(148,148,148); stroke-opacity:0; stroke-width:0" />
<rect x="376.353591" y="200.000000" width="16.795580" height="680.000000"
 style="fill:rgb(148,148,148); fill-opacity:0.15; stroke:rgb(148,148,148); stroke-opacity:0; stroke-width:0" />
<rect x="435.138122" y="200.000000" width="16.795580" height="680.000000"
 style="fill:rgb(148,148,148); fill-opacity:0.15; stroke:rgb(148,148,148); stroke-opacity:0; stroke-width:0" />
<rect x="493.922652" y="200.000000" width="16.795580" height="680.000000"
 style="fill:rgb(148,148,148); fill-opacity:0.15; stroke:rgb(148,148,148); stroke-opacity:0; stroke-width:0" />
<rect x="552.707182" y="200.000000" width="16.795580" height="680.000000"
 style="fill:rgb(148,148,148); fill-opacity:0.15; stroke:rgb(148,148,148); stroke-opacity:0; stroke-width:0" />
<rect x="611.491713" y="200.000000" width="16.795580" height="680.000000"
 style="fill:rgb(148,148,148); fill-opacity:0.15; stroke:rgb(148,148,148); stroke-opacity:0; stroke-width:0" />
<rect x="670.276243" y="200.000000" width="16.795580" height="680.000000"
 style="fill:rgb(148,148,148); fill-opacity:0.15; stroke:rgb(148,148,148); stroke-opacity:0; stroke-width:0" />
<rect x="729.060773" y="200.000000" width="16.795580" height="680.000000"
 style="fill:rgb(148,148,148); fill-opacity:0.15; stroke:rgb(148,148,148); stroke-opacity:0; stroke-width:0" />
<rect x="787.845304" y="200.000000" width="16.795580" height="680.000000"
 style="fill:rgb(148,148,148); fill-opacity:0.15; stroke:rgb(148,148,148); stroke-opacity:0; stroke-width:0" />
<rect x="846.629834" y="200.000000" width="16.795580" height="680.000000"
 style="fill:rgb(148,148,148); fill-opacity:0.15; stroke:rgb(148,148,148); stroke-opacity:0; stroke-width:0" />
<rect x="905.414365" y="200.000000" width="16.795580" height="680.000000"
 style="fill:rgb(148,148,148); fill-opacity:0.15; stroke:rgb(148,148,148); stroke-opacity:0; stroke-width:0" />
<rect x="964.198895" y="200.000000" width="16.795580" height="680.000000"
 style="fill:rgb(148,148,148); fill-opacity:0.15; stroke:rgb(148,148,148); stroke-opacity:0; stroke-width:0" />
<rect x="1022.983425" y="200.000000" width="16.795580" height="680.000000"
 style="fill:rgb(148,148,148); fill-opacity:0.15; stroke:rgb(148,148,148); stroke-opacity:0; stroke-width:0" />
<rect x="1081.767956" y="200.000000" width="16.795580" height="680.000000"
 style="fill:rgb(148,148,148); fill-opacity:0.15; stroke:rgb(148,148,148); stroke-opacity:0; stroke-width:0" />
<rect x="1140.552486" y="200.000000" width="16.795580" height="680.000000"
 style="fill:rgb(148,148,148); fill-opacity:0.15; stroke:rgb(148,148,148); stroke-opacity:0; stroke-width:0" />
<rect x="1199.337017" y="200.000000" width="16.795580" height="680.000000"
 style="fill:rgb(148,148,148); fill-opacity:0.15; stroke:rgb(148,148,148); stroke-opacity:0; stroke-width:0" />
<rect x="1258.121547" y="200.000000" width="16.795580" height="680.000000"
 style="fill:rgb(148,148,148); fill-opacity:0.15; stroke:rgb(148,148,148); stroke-opacity:0; stroke-width:0" />
<rect x="1316.906077" y="200.000000" width="16.795580" height="680.000000"
 style="fill:rgb(148,148,148); fill-opacity:0.15; stroke:rgb(148,148,148); stroke-opacity:0; stroke-width:0" />
<rect x="1375.690608" y="200.000000" width="16.795580" height="680.000000"
 style="fill:rgb(148,148,148); fill-opacity:0.15; stroke:rgb(148,148,148); stroke-opacity:0; stroke-width:0" />
<rect x="1434.475138" y="200.000000" width="16.795580" height="680.000000"
 style="fill:rgb(148,148,148); fill-opacity:0.15; stroke:rgb(148,148,148); stroke-opacity:0; stroke-width:0" />
<rect x="1493.259669" y="200.000000" width="16.795580" height="680.000000"
 style="fill:rgb(148,148,148); fill-opacity:0.15; stroke:rgb(148,148,148); stroke-opacity:0; stroke-width:0" />
<rect x="1552.044199" y="200.000000" width="16.795580" height="680.000000"
 style="fill:rgb(148,148,148); fill-opacity:0.15; stroke:rgb(148,148,148); stroke-opacity:0; stroke-width:0" />
<rect x="1610.828729" y="200.000000" width="16.795580" height="680.000000"
 style="fill:rgb(148,148,148); fill-opacity:0.15; stroke:rgb(148,148,148); stroke-opacity:0; stroke-width:0" />
<rect x="1669.613260" y="200.000000" width="16.795580" height="680.000000"
 style="fill:rgb(148,148,148); fill-opacity:0.15; stroke:rgb(148,148,148); stroke-opacity:0; stroke-width:0" />
 </g>
 <g id="polyline-eyes-of-wakanda-01 downloads by day">
<polyline points="200,827.39 208.398,683.89 216.796,656.926 225.193,554.587 233.591,730.506 241.989,437.168 250.387,390.699 258.785,412.354 267.182,396.318 275.58,388.158 283.978,381.796 292.376,377.843 300.773,398.631 309.171,399.68 317.569,468.156 325.967,485.938 334.365,482.607 342.762,464.296 351.16,448.764 359.558,484.047 367.956,506.574 376.354,512.183 384.751,515.634 393.149,526.864 401.547,530.31 409.945,607.701 418.343,658.937 426.74,483.616 435.138,440.424 443.536,505.645 451.934,499.197 460.331,511.546 468.729,494.14 477.127,486.934 485.525,513.32 493.923,497.737 502.32,499.179 510.718,494.711 519.116,495.965 527.514,476.292 535.912,511.467 544.309,528.946 552.707,507.989 561.105,526.074 569.503,515.753 577.901,488.811 586.298,481.244 594.696,512.305 603.094,510.794 611.492,524.931 619.89,515.959 628.287,489.221 636.685,446.335 645.083,412.416 653.481,420.795 661.878,419.158 670.276,443.592 678.674,406.709 687.072,427.086 695.47,475.422 703.867,437.297 712.265,420.302 720.663,440.292 729.061,459.885 737.459,462.845 745.856,460.191 754.254,469.461 762.652,436.571 771.05,404.566 779.448,334.336 787.845,343.65 796.243,351.127 804.641,418.811 813.039,403.352 821.436,444.001 829.834,425.376 838.232,439.418 846.63,443.278 855.028,436.447 863.425,457.7 871.823,426.473 880.221,418.269 888.619,430.086 897.017,446.333 905.414,416.36 913.812,408.063 922.21,400.127 930.608,407.163 939.006,420.282 947.403,446.377 955.801,384.373 964.199,405.482 972.597,415.433 980.994,404.801 989.392,425.69 997.79,398.622 1006.19,366.555 1014.59,355.841 1022.98,420.211 1031.38,430.254 1039.78,380.865 1048.18,403.038 1056.57,418.468 1064.97,420.539 1073.37,421.218 1081.77,436.688 1090.17,428.774 1098.56,417.208 1106.96,442.8 1115.36,446.7 1123.76,467.683 1132.15,442.276 1140.55,472.6 1148.95,451.453 1157.35,426.757 1165.75,411.279 1174.14,463.809 1182.54,454.959 1190.94,411.835 1199.34,357.5 1207.73,345.385 1216.13,426.396 1224.53,424.038 1232.93,424.458 1241.33,417.935 1249.72,390.739 1258.12,403.513 1266.52,384.375 1274.92,369.612 1283.31,270.617 1291.71,248.67 1300.11,203.873 1308.51,258.706 1316.91,292.569 1325.3,270.029 1333.7,334.732 1342.1,281.578 1350.5,289.594 1358.9,203.34 1367.29,200 1375.69,285.537 1384.09,288.338 1392.49,296.469 1400.88,540.685 1409.28,662.854 1417.68,402.947 1426.08,332.4 1434.48,380.537 1442.87,374.249 1451.27,394.055 1459.67,395.911 1468.07,387.492 1476.46,355.69 1484.86,295 1493.26,274.104 1501.66,308.878 1510.06,325.322 1518.45,340.649 1526.85,342.522 1535.25,272.252 1543.65,289.063 1552.04,261.053 1560.44,299.586 1568.84,308.23 1577.24,310.86 1585.64,355.646 1594.03,328.726 1602.43,285.338 1610.83,290.746 1619.23,330.443 1627.62,362.454 1636.02,350.839 1644.42,329.81 1652.82,323.838 1661.22,314.37 1669.61,264.563 1678.01,286.219 1686.41,286.847 1694.81,353.854 1703.2,353.387 1711.6,330.763 1720,289.921 "  style="fill:rgb(0,0,255); fill-opacity:0; stroke:rgb(0,0,255); stroke-opacity:1; stroke-width:4" />
 </g>
 <g id="polyline-eyes-of-wakanda-01 downloads by day uploaders">
<polyline points="200,863.255 208.398,829.213 216.796,846.469 225.193,839.501 233.591,836.068 241.989,835.391 250.387,836.479 258.785,840.275 267.182,845.053 275.58,847.256 283.978,849.433 292.376,850.585 300.773,850.152 309.171,844.305 317.569,854.027 325.967,854.783 334.365,857.597 342.762,854.354 351.16,856.066 359.558,860.24 367.956,860.597 376.354,855.458 384.751,860.234 393.149,861.501 401.547,861.032 409.945,863.333 418.343,862.565 426.74,863.22 435.138,864.224 443.536,865.315 451.934,861.718 460.331,865.129 468.729,866.268 477.127,865.507 485.525,866.622 493.923,867.892 502.32,868.714 510.718,869.141 519.116,869.524 527.514,869.546 535.912,869.812 544.309,869.816 552.707,869.478 561.105,869.557 569.503,870.015 577.901,869.953 586.298,870.92 594.696,870.42 603.094,870.285 611.492,869.887 619.89,870.23 628.287,870.385 636.685,870.736 645.083,870.3 653.481,869.829 661.878,874.904 670.276,875.47 678.674,875.494 687.072,875.726 695.47,875.28 703.867,875.866 712.265,875.901 720.663,875.638 729.061,875.846 737.459,876.182 745.856,876.313 754.254,875.826 762.652,875.83 771.05,876.164 779.448,876.067 787.845,876.248 796.243,876.39 804.641,876.467 813.039,876.39 821.436,876.248 829.834,876.244 838.232,877.012 846.63,877.003 855.028,877.262 863.425,876.992 871.823,877.598 880.221,877.027 888.619,877.295 897.017,877.693 905.414,877.691 913.812,877.339 922.21,877.658 930.608,877.943 939.006,877.069 947.403,877.808 955.801,877.361 964.199,877.419 972.597,878.202 980.994,877.644 989.392,877.804 997.79,877.481 1006.19,877.27 1014.59,877.839 1022.98,877.788 1031.38,877.841 1039.78,878.065 1048.18,877.622 1056.57,879.299 1064.97,879.235 1073.37,878.575 1081.77,878.264 1090.17,878.27 1098.56,878.372 1106.96,878.275 1115.36,878.33 1123.76,878.489 1132.15,878.825 1140.55,878.317 1148.95,878.859 1157.35,878.664 1165.75,878.211 1174.14,878.748 1182.54,878.414 1190.94,878.376 1199.34,878.337 1207.73,878.896 1216.13,878.909 1224.53,878.852 1232.93,878.766 1241.33,878.498 1249.72,878.925 1258.12,879.025 1266.52,879.21 1274.92,879.124 1283.31,878.894 1291.71,879.299 1300.11,879.195 1308.51,879.297 1316.91,879.117 1325.3,879.701 1333.7,879.564 1342.1,879.372 1350.5,879.286 1358.9,879.244 1367.29,879.37 1375.69,879.12 1384.09,879.372 1392.49,879.454 1400.88,879.255 1409.28,879.308 1417.68,879.635 1426.08,879.695 1434.48,879.266 1442.87,879.412 1451.27,879.704 1459.67,879.42 1468.07,879.35 1476.46,879.907 1484.86,879.761 1493.26,879.69 1501.66,879.85 1510.06,879.834 1518.45,879.772 1526.85,879.604 1535.25,879.584 1543.65,879.909 1552.04,879.664 1560.44,879.655 1568.84,879.558 1577.24,879.75 1585.64,879.566 1594.03,879.799 1602.43,879.615 1610.83,879.312 1619.23,879.631 1627.62,879.436 1636.02,879.719 1644.42,879.805 1652.82,879.524 1661.22,879.445 1669.61,880 1678.01,879.781 1686.41,879.81 1694.81,879.693 1703.2,879.558 1711.6,879.389 1720,879.474 " stroke-dasharray="5 15"  style="fill:rgb(0,0,255); fill-opacity:0; stroke:rgb(0,0,255); stroke-opacity:1; stroke-width:4" />
 </g>
</svg>
