<svg xml:space="preserve"
     xmlns="http://www.w3.org/2000/svg"
     xmlns:xlink="http://www.w3.org/1999/xlink"
     xmlns:html="http://www.w3.org/1999/xhtml"
id="ironheart-01-downloads-by-day-day" x="0px" y="0px"
width="1920.000000px" height="1080.000000px"
viewBox="0 0 1920.000000 1080.000000" enable-background="new 0 0 1920.000000 1080.000000" role="img">
<title>
ironheart-01-downloads-by-day-day
</title>
<desc>
Daily series for ironheart-01: upeers_total solid, useeds_total dashed.
</desc>
<title>
ironheart-01-downloads-by-day-day
</title>
 <g id="annotations">
<text x="960.000000" y="126.000000" font-family="Atkinson Hyperlegible" font-size="26.000000pt" text-anchor="middle" text-align="center" font-weight="600" font-style="normal"  style="fill:rgb(118,118,118); fill-opacity:1; stroke:rgb(118,118,118); stroke-opacity:0; stroke-width:0.5"> ironheart-01 downloads by day</text>
 <g id="axes-lines">
<text x="960.000000" y="1007.000000" font-family="Atkinson Hyperlegible" font-size="18.000000pt" text-anchor="middle" text-align="center" font-weight="500" font-style="normal"  style="fill:rgb(118,118,118); fill-opacity:1; stroke:rgb(118,118,118); stroke-opacity:0; stroke-width:0.5"> DAY</text>
<text x="73.000000" y="540.000000" font-family="Atkinson Hyperlegible" font-size="18.000000pt" text-anchor="middle" text-align="center" dominant-baseline="central" font-weight="500" font-style="normal"  style="fill:rgb(118,118,118); fill-opacity:1; stroke:rgb(118,118,118); stroke-opacity:0; stroke-width:0.5" transform="rotate(-90,73,540)"> DOWNLOADERS</text>
 </g>
 <g id="tic-y-label-lines">
<line x1="218.000000" y1="800.880773" x2="1702.000000" y2="800.880773" style="fill:rgb(0,0,255); fill-opacity:0; stroke:rgb(242,242,242); stroke-opacity:1; stroke-width:4" />
<line x1="218.000000" y1="732.880773" x2="1702.000000" y2="732.880773" style="fill:rgb(0,0,255); fill-opacity:0; stroke:rgb(242,242,242); stroke-opacity:1; stroke-width:4" />
<line x1="218.000000" y1="664.880773" x2="1702.000000" y2="664.880773" style="fill:rgb(0,0,255); fill-opacity:0; stroke:rgb(242,242,242); stroke-opacity:1; stroke-width:4" />
<line x1="218.000000" y1="596.880773" x2="1702.000000" y2="596.880773" style="fill:rgb(0,0,255); fill-opacity:0; stroke:rgb(242,242,242); stroke-opacity:1; stroke-width:4" />
<line x1="218.000000" y1="528.880773" x2="1702.000000" y2="528.880773" style="fill:rgb(0,0,255); fill-opacity:0; stroke:rgb(242,242,242); stroke-opacity:1; stroke-width:4" />
<line x1="218.000000" y1="460.880773" x2="1702.000000" y2="460.880773" style="fill:rgb(0,0,255); fill-opacity:0; stroke:rgb(242,242,242); stroke-opacity:1; stroke-width:4" />
<line x1="218.000000" y1="392.880773" x2="1702.000000" y2="392.880773" style="fill:rgb(0,0,255); fill-opacity:0; stroke:rgb(242,242,242); stroke-opacity:1; stroke-width:4" />
<line x1="218.000000" y1="324.880773" x2="1702.000000" y2="324.880773" style="fill:rgb(0,0,255); fill-opacity:0; stroke:rgb(242,242,242); stroke-opacity:1; stroke-width:4" />
<line x1="218.000000" y1="256.880773" x2="1702.000000" y2="256.880773" style="fill:rgb(0,0,255); fill-opacity:0; stroke:rgb(242,242,242); stroke-opacity:1; stroke-width:4" />
<line x1="218.000000" y1="188.880773" x2="1702.000000" y2="188.880773" style="fill:rgb(0,0,255); fill-opacity:0; stroke:rgb(242,242,242); stroke-opacity:1; stroke-width:4" />
 </g>
 <g id="tic-x-labels">
<text x="200.000000" y="898.000000" font-family="Atkinson Hyperlegible" font-size="14.000000pt" text-anchor="middle" text-align="center" dominant-baseline="central" font-weight="400" font-style="normal"  style="fill:rgb(118,118,118); fill-opacity:1; stroke:rgb(118,118,118); stroke-opacity:0; stroke-width:0.5"> 1</text>
<text x="275.580110" y="898.000000" font-family="Atkinson Hyperlegible" font-size="14.000000pt" text-anchor="middle" text-align="center" dominant-baseline="central" font-weight="400" font-style="normal"  style="fill:rgb(118,118,118); fill-opacity:1; stroke:rgb(118,118,118); stroke-opacity:0; stroke-width:0.5"> 10</text>
<text x="351.160221" y="898.000000" font-family="Atkinson Hyperlegible" font-size="14.000000pt" text-anchor="middle" text-align="center" dominant-baseline="central" font-weight="400" font-style="normal"  style="fill:rgb(118,118,118); fill-opacity:1; stroke:rgb(118,118,118); stroke-opacity:0; stroke-width:0.5"> 19</text>
<text x="426.740331" y="898.000000" font-family="Atkinson Hyperlegible" font-size="14.000000pt" text-anchor="middle" text-align="center" dominant-baseline="central" font-weight="400" font-style="normal"  style="fill:rgb(118,118,118); fill-opacity:1; stroke:rgb(118,118,118); stroke-opacity:0; stroke-width:0.5"> 28</text>
<text x="502.320442" y="898.000000" font-family="Atkinson Hyperlegible" font-size="14.000000pt" text-anchor="middle" text-align="center" dominant-baseline="central" font-weight="400" font-style="normal"  style="fill:rgb(118,118,118); fill-opacity:1; stroke:rgb(118,118,118); stroke-opacity:0; stroke-width:0.5"> 37</text>
<text x="577.900552" y="898.000000" font-family="Atkinson Hyperlegible" font-size="14.000000pt" text-anchor="middle" text-align="center" dominant-baseline="central" font-weight="400" font-style="normal"  style="fill:rgb(118,118,118); fill-opacity:1; stroke:rgb(118,118,118); stroke-opacity:0; stroke-width:0.5"> 46</text>
<text x="653.480663" y="898.000000" font-family="Atkinson Hyperlegible" font-size="14.000000pt" text-anchor="middle" text-align="center" dominant-baseline="central" font-weight="400" font-style="normal"  style="fill:rgb(118,118,118); fill-opacity:1; stroke:rgb(118,118,118); stroke-opacity:0; stroke-width:0.5"> 55</text>
<text x="729.060773" y="898.000000" font-family="Atkinson Hyperlegible" font-size="14.000000pt" text-anchor="middle" text-align="center" dominant-baseline="central" font-weight="400" font-style="normal"  style="fill:rgb(118,118,118); fill-opacity:1; stroke:rgb(118,118,118); stroke-opacity:0; stroke-width:0.5"> 64</text>
<text x="804.640884" y="898.000000" font-family="Atkinson Hyperlegible" font-size="14.000000pt" text-anchor="middle" text-align="center" dominant-baseline="central" font-weight="400" font-style="normal"  style="fill:rgb(118,118,118); fill-opacity:1; stroke:rgb(118,118,118); stroke-opacity:0; stroke-width:0.5"> 73</text>
<text x="880.220994" y="898.000000" font-family="Atkinson Hyperlegible" font-size="14.000000pt" text-anchor="middle" text-align="center" dominant-baseline="central" font-weight="400" font-style="normal"  style="fill:rgb(118,118,118); fill-opacity:1; stroke:rgb(118,118,118); stroke-opacity:0; stroke-width:0.5"> 82</text>
<text x="955.801105" y="898.000000" font-family="Atkinson Hyperlegible" font-size="14.000000pt" text-anchor="middle" text-align="center" dominant-baseline="central" font-weight="400" font-style="normal"  style="fill:rgb(118,118,118); fill-opacity:1; stroke:rgb(118,118,118); stroke-opacity:0; stroke-width:0.5"> 91</text>
<text x="1031.381215" y="898.000000" font-family="Atkinson Hyperlegible" font-size="14.000000pt" text-anchor="middle" text-align="center" dominant-baseline="central" font-weight="400" font-style="normal"  style="fill:rgb(118,118,118); fill-opacity:1; stroke:rgb(118,118,118); stroke-opacity:0; stroke-width:0.5"> 100</text>
<text x="1106.961326" y="898.000000" font-family="Atkinson Hyperlegible" font-size="14.000000pt" text-anchor="middle" text-align="center" dominant-baseline="central" font-weight="400" font-style="normal"  style="fill:rgb(118,118,118); fill-opacity:1; stroke:rgb(118,118,118); stroke-opacity:0; stroke-width:0.5"> 109</text>
<text x="1182.541436" y="898.000000" font-family="Atkinson Hyperlegible" font-size="14.000000pt" text-anchor="middle" text-align="center" dominant-baseline="central" font-weight="400" font-style="normal"  style="fill:rgb(118,118,118); fill-opacity:1; stroke:rgb(118,118,118); stroke-opacity:0; stroke-width:0.5"> 118</text>
<text x="1258.121547" y="898.000000" font-family="Atkinson Hyperlegible" font-size="14.000000pt" text-anchor="middle" text-align="center" dominant-baseline="central" font-weight="400" font-style="normal"  style="fill:rgb(118,118,118); fill-opacity:1; stroke:rgb(118,118,118); stroke-opacity:0; stroke-width:0.5"> 127</text>
<text x="1333.701657" y="898.000000" font-family="Atkinson Hyperlegible" font-size="14.000000pt" text-anchor="middle" text-align="center" dominant-baseline="central" font-weight="400" font-style="normal"  style="fill:rgb(118,118,118); fill-opacity:1; stroke:rgb(118,118,118); stroke-opacity:0; stroke-width:0.5"> 136</text>
<text x="1409.281768" y="898.000000" font-family="Atkinson Hyperlegible" font-size="14.000000pt" text-anchor="middle" text-align="center" dominant-baseline="central" font-weight="400" font-style="normal"  style="fill:rgb(118,118,118); fill-opacity:1; stroke:rgb(118,118,118); stroke-opacity:0; stroke-width:0.5"> 145</text>
<text x="1484.861878" y="898.000000" font-family="Atkinson Hyperlegible" font-size="14.000000pt" text-anchor="middle" text-align="center" dominant-baseline="central" font-weight="400" font-style="normal"  style="fill:rgb(118,118,118); fill-opacity:1; stroke:rgb(118,118,118); stroke-opacity:0; stroke-width:0.5"> 154</text>
<text x="1560.441989" y="898.000000" font-family="Atkinson Hyperlegible" font-size="14.000000pt" text-anchor="middle" text-align="center" dominant-baseline="central" font-weight="400" font-style="normal"  style="fill:rgb(118,118,118); fill-opacity:1; stroke:rgb(118,118,118); stroke-opacity:0; stroke-width:0.5"> 163</text>
<text x="1636.022099" y="898.000000" font-family="Atkinson Hyperlegible" font-size="14.000000pt" text-anchor="middle" text-align="center" dominant-baseline="central" font-weight="400" font-style="normal"  style="fill:rgb(118,118,118); fill-opacity:1; stroke:rgb(118,118,118); stroke-opacity:0; stroke-width:0.5"> 172</text>
<text x="1711.602210" y="898.000000" font-family="Atkinson Hyperlegible" font-size="14.000000pt" text-anchor="middle" text-align="center" dominant-baseline="central" font-weight="400" font-style="normal"  style="fill:rgb(118,118,118); fill-opacity:1; stroke:rgb(118,118,118); stroke-opacity:0; stroke-width:0.5"> 181</text>
 </g>
 <g id="tic-y-labels">
<text x="164.000000" y="870.880773" font-family="Atkinson Hyperlegible" font-size="14.000000pt" text-anchor="middle" text-align="center" dominant-baseline="central" font-weight="400" font-style="normal"  style="fill:rgb(118,118,118); fill-opacity:1; stroke:rgb(118,118,118); stroke-opacity:0; stroke-width:0.5"> 12k</text>
<text x="1756.000000" y="870.880773" font-family="Atkinson Hyperlegible" font-size="14.000000pt" text-anchor="middle" text-align="center" dominant-baseline="central" font-weight="400" font-style="normal"  style="fill:rgb(118,118,118); fill-opacity:1; stroke:rgb(118,118,118); stroke-opacity:0; stroke-width:0.5"> 12k</text>
<text x="164.000000" y="802.880773" font-family="Atkinson Hyperlegible" font-size="14.000000pt" text-anchor="middle" text-align="center" dominant-baseline="central" font-weight="400" font-style="normal"  style="fill:rgb(118,118,118); fill-opacity:1; stroke:rgb(118,118,118); stroke-opacity:0; stroke-width:0.5"> 99k</text>
<text x="1756.000000" y="802.880773" font-family="Atkinson Hyperlegible" font-size="14.000000pt" text-anchor="middle" text-align="center" dominant-baseline="central" font-weight="400" font-style="normal"  style="fill:rgb(118,118,118); fill-opacity:1; stroke:rgb(118,118,118); stroke-opacity:0; stroke-width:0.5"> 99k</text>
<text x="164.000000" y="734.880773" font-family="Atkinson Hyperlegible" font-size="14.000000pt" text-anchor="middle" text-align="center" dominant-baseline="central" font-weight="400" font-style="normal"  style="fill:rgb(118,118,118); fill-opacity:1; stroke:rgb(118,118,118); stroke-opacity:0; stroke-width:0.5"> 186k</text>
<text x="1756.000000" y="734.880773" font-family="Atkinson Hyperlegible" font-size="14.000000pt" text-anchor="middle" text-align="center" dominant-baseline="central" font-weight="400" font-style="normal"  style="fill:rgb(118,118,118); fill-opacity:1; stroke:rgb(118,118,118); stroke-opacity:0; stroke-width:0.5"> 186k</text>
<text x="164.000000" y="666.880773" font-family="Atkinson Hyperlegible" font-size="14.000000pt" text-anchor="middle" text-align="center" dominant-baseline="central" font-weight="400" font-style="normal"  style="fill:rgb(118,118,118); fill-opacity:1; stroke:rgb(118,118,118); stroke-opacity:0; stroke-width:0.5"> 273k</text>
<text x="1756.000000" y="666.880773" font-family="Atkinson Hyperlegible" font-size="14.000000pt" text-anchor="middle" text-align="center" dominant-baseline="central" font-weight="400" font-style="normal"  style="fill:rgb(118,118,118); fill-opacity:1; stroke:rgb(118,118,118); stroke-opacity:0; stroke-width:0.5"> 273k</text>
<text x="164.000000" y="598.880773" font-family="Atkinson Hyperlegible" font-size="14.000000pt" text-anchor="middle" text-align="center" dominant-baseline="central" font-weight="400" font-style="normal"  style="fill:rgb(118,118,118); fill-opacity:1; stroke:rgb(118,118,118); stroke-opacity:0; stroke-width:0.5"> 360k</text>
<text x="1756.000000" y="598.880773" font-family="Atkinson Hyperlegible" font-size="14.000000pt" text-anchor="middle" text-align="center" dominant-baseline="central" font-weight="400" font-style="normal"  style="fill:rgb(118,118,118); fill-opacity:1; stroke:rgb(118,118,118); stroke-opacity:0; stroke-width:0.5"> 360k</text>
<text x="164.000000" y="530.880773" font-family="Atkinson Hyperlegible" font-size="14.000000pt" text-anchor="middle" text-align="center" dominant-baseline="central" font-weight="400" font-style="normal"  style="fill:rgb(118,118,118); fill-opacity:1; stroke:rgb(118,118,118); stroke-opacity:0; stroke-width:0.5"> 448k</text>
<text x="1756.000000" y="530.880773" font-family="Atkinson Hyperlegible" font-size="14.000000pt" text-anchor="middle" text-align="center" dominant-baseline="central" font-weight="400" font-style="normal"  style="fill:rgb(118,118,118); fill-opacity:1; stroke:rgb(118,118,118); stroke-opacity:0; stroke-width:0.5"> 448k</text>
<text x="164.000000" y="462.880773" font-family="Atkinson Hyperlegible" font-size="14.000000pt" text-anchor="middle" text-align="center" dominant-baseline="central" font-weight="400" font-style="normal"  style="fill:rgb(118,118,118); fill-opacity:1; stroke:rgb(118,118,118); stroke-opacity:0; stroke-width:0.5"> 535k</text>
<text x="1756.000000" y="462.880773" font-family="Atkinson Hyperlegible" font-size="14.000000pt" text-anchor="middle" text-align="center" dominant-baseline="central" font-weight="400" font-style="normal"  style="fill:rgb(118,118,118); fill-opacity:1; stroke:rgb(118,118,118); stroke-opacity:0; stroke-width:0.5"> 535k</text>
<text x="164.000000" y="394.880773" font-family="Atkinson Hyperlegible" font-size="14.000000pt" text-anchor="middle" text-align="center" dominant-baseline="central" font-weight="400" font-style="normal"  style="fill:rgb(118,118,118); fill-opacity:1; stroke:rgb(118,118,118); stroke-opacity:0; stroke-width:0.5"> 622k</text>
<text x="1756.000000" y="394.880773" font-family="Atkinson Hyperlegible" font-size="14.000000pt" text-anchor="middle" text-align="center" dominant-baseline="central" font-weight="400" font-style="normal"  style="fill:rgb(118,118,118); fill-opacity:1; stroke:rgb(118,118,118); stroke-opacity:0; stroke-width:0.5"> 622k</text>
<text x="164.000000" y="326.880773" font-family="Atkinson Hyperlegible" font-size="14.000000pt" text-anchor="middle" text-align="center" dominant-baseline="central" font-weight="400" font-style="normal"  style="fill:rgb(118,118,118); fill-opacity:1; stroke:rgb(118,118,118); stroke-opacity:0; stroke-width:0.5"> 709k</text>
<text x="1756.000000" y="326.880773" font-family="Atkinson Hyperlegible" font-size="14.000000pt" text-anchor="middle" text-align="center" dominant-baseline="central" font-weight="400" font-style="normal"  style="fill:rgb(118,118,118); fill-opacity:1; stroke:rgb(118,118,118); stroke-opacity:0; stroke-width:0.5"> 709k</text>
<text x="164.000000" y="258.880773" font-family="Atkinson Hyperlegible" font-size="14.000000pt" text-anchor="middle" text-align="center" dominant-baseline="central" font-weight="400" font-style="normal"  style="fill:rgb(118,118,118); fill-opacity:1; stroke:rgb(118,118,118); stroke-opacity:0; stroke-width:0.5"> 796k</text>
<text x="1756.000000" y="258.880773" font-family="Atkinson Hyperlegible" font-size="14.000000pt" text-anchor="middle" text-align="center" dominant-baseline="central" font-weight="400" font-style="normal"  style="fill:rgb(118,118,118); fill-opacity:1; stroke:rgb(118,118,118); stroke-opacity:0; stroke-width:0.5"> 796k</text>
<text x="164.000000" y="190.880773" font-family="Atkinson Hyperlegible" font-size="14.000000pt" text-anchor="middle" text-align="center" dominant-baseline="central" font-weight="400" font-style="normal"  style="fill:rgb(118,118,118); fill-opacity:1; stroke:rgb(118,118,118); stroke-opacity:0; stroke-width:0.5"> 884k</text>
<text x="1756.000000" y="190.880773" font-family="Atkinson Hyperlegible" font-size="14.000000pt" text-anchor="middle" text-align="center" dominant-baseline="central" font-weight="400" font-style="normal"  style="fill:rgb(118,118,118); fill-opacity:1; stroke:rgb(118,118,118); stroke-opacity:0; stroke-width:0.5"> 884k</text>
 </g>
 </g>
 <g id="weekend-bands-ironheart-01 downloads by day">
<rect x="216.795580" y="200.000000" width="16.795580" height="680.000000"
 style="fill:rgb(148,148,148); fill-opacity:0.15; stroke:rgb(148,148,148); stroke-opacity:0; stroke-width:0" />
<rect x="275.580110" y="200.000000" width="16.795580" height="680.000000"
 style="fill:rgb(148,148,148); fill-opacity:0.15; stroke:rgb(148,148,148); stroke-opacity:0; stroke-width:0" />
<rect x="334.364641" y="200.000000" width="16.795580" height="680.000000"
 style="fill:rgb(148,148,148); fill-opacity:0.15; stroke:rgb(148,148,148); stroke-opacity:0; stroke-width:0" />
<rect x="393.149171" y="200.000000" width="16.795580" height="680.000000"
 style="fill:rgb(148,148,148); fill-opacity:0.15; stroke:rgb(148,148,148); stroke-opacity:0; stroke-width:0" />
<rect x="451.933702" y="200.000000" width="16.795580" height="680.000000"
 style="fill:rgb(148,148,148); fill-opacity:0.15; stroke:rgb(148,148,148); stroke-opacity:0; stroke-width:0" />
<rect x="510.718232" y="200.000000" width="16.795580" height="680.000000"
 style="fill:rgb(148,148,148); fill-opacity:0.15; stroke:rgb(148,148,148); stroke-opacity:0; stroke-width:0" />
<rect x="569.502762" y="200.000000" width="16.795580" height="680.000000"
 style="fill:rgb(148,148,148); fill-opacity:0.15; stroke:rgb(148,148,148); stroke-opacity:0; stroke-width:0" />
<rect x="628.287293" y="200.000000" width="16.795580" height="680.000000"
 style="fill:rgb(148,148,148); fill-opacity:0.15; stroke:rgb(148,148,148); stroke-opacity:0; stroke-width:0" />
<rect x="687.071823" y="200.000000" width="16.795580" height="680.000000"
 style="fill:rgb(148,148,148); fill-opacity:0.15; stroke:rgb(148,148,148); stroke-opacity:0; stroke-width:0" />
<rect x="745.856354" y="200.000000" width="16.795580" height="680.000000"
 style="fill:rgb(148,148,148); fill-opacity:0.15; stroke:rgb(148,148,148); stroke-opacity:0; stroke-width:0" />
<rect x="804.640884" y="200.000000" width="16.795580" height="680.000000"
 style="fill:rgb(148,148,148); fill-opacity:0.15; stroke:rgb(148,148,148); stroke-opacity:0; stroke-width:0" />
<rect x="863.425414" y="200.000000" width="16.795580" height="680.000000"
 style="fill:rgb(148,148,148); fill-opacity:0.15; stroke:rgb(148,148,148); stroke-opacity:0; stroke-width:0" />
<rect x="922.209945" y="200.000000" width="16.795580" height="680.000000"
 style="fill:rgb(148,148,148); fill-opacity:0.15; stroke:rgb(148,148,148); stroke-opacity:0; stroke-width:0" />
<rect x="980.994475" y="200.000000" width="16.795580" height="680.000000"
 style="fill:rgb(148,148,148); fill-opacity:0.15; stroke:rgb(148,148,148); stroke-opacity:0; stroke-width:0" />
<rect x="1039.779006" y="200.000000" width="16.795580" height="680.000000"
 style="fill:rgb(148,148,148); fill-opacity:0.15; stroke:rgb(148,148,148); stroke-opacity:0; stroke-width:0" />
<rect x="1098.563536" y="200.000000" width="16.795580" height="680.000000"
 style="fill:rgb(148,148,148); fill-opacity:0.15; stroke:rgb(148,148,148); stroke-opacity:0; stroke-width:0" />
<rect x="1157.348066" y="200.000000" width="16.795580" height="680.000000"
 style="fill:rgb(148,148,148); fill-opacity:0.15; stroke:rgb(148,148,148); stroke-opacity:0; stroke-width:0" />
<rect x="1216.132597" y="200.000000" width="16.795580" height="680.000000"
 style="fill:rgb(148,148,148); fill-opacity:0.15; stroke:rgb(148,148,148); stroke-opacity:0; stroke-width:0" />
<rect x="1274.917127" y="200.000000" width="16.795580" height="680.000000"
 style="fill:rgb(148,148,148); fill-opacity:0.15; stroke:rgb(148,148,148); stroke-opacity:0; stroke-width:0" />
<rect x="1333.701657" y="200.000000" width="16.795580" height="680.000000"
 style="fill:rgb(148,148,148); fill-opacity:0.15; stroke:rgb(148,148,148); stroke-opacity:0; stroke-width:0" />
<rect x="1392.486188" y="200.000000" width="16.795580" height="680.000000"
 style="fill:rgb(148,148,148); fill-opacity:0.15; stroke:rgb(148,148,148); stroke-opacity:0; stroke-width:0" />
<rect x="1451.270718" y="200.000000" width="16.795580" height="680.000000"
 style="fill:rgb(148,148,148); fill-opacity:0.15; stroke:rgb(148,148,148); stroke-opacity:0; stroke-width:0" />
<rect x="1510.055249" y="200.000000" width="16.795580" height="680.000000"
 style="fill:rgb(148,148,148); fill-opacity:0.15; stroke:rgb(148,148,148); stroke-opacity:0; stroke-width:0" />
<rect x="1568.839779" y="200.000000" width="16.795580" height="680.000000"
 style="fill:rgb(148,148,148); fill-opacity:0.15; stroke:rgb(148,148,148); stroke-opacity:0; stroke-width:0" />
<rect x="1627.624309" y="200.000000" width="16.795580" height="680.000000"
 style="fill:rgb(148,148,148); fill-opacity:0.15; stroke:rgb(148,148,148); stroke-opacity:0; stroke-width:0" />
<rect x="1686.408840" y="200.000000" width="16.795580" height="680.000000"
 style="fill:rgb(148,148,148); fill-opacity:0.15; stroke:rgb(148,148,148); stroke-opacity:0; stroke-width:0" />
 </g>
 <g id="polyline-ironheart-01 downloads by day">
<polyline points="200,707.574 208.398,658.231 216.796,550.909 225.193,583.572 233.591,595.232 241.989,573.286 250.387,572.85 258.785,413.729 267.182,387.25 275.58,386.15 283.978,382.075 292.376,383.611 300.773,391.237 309.171,393.783 317.569,409.667 325.967,423.232 334.365,422.452 342.762,428.001 351.16,422.314 359.558,427.05 367.956,394.686 376.354,412.826 384.751,417.832 393.149,419.013 401.547,424.463 409.945,425.668 418.343,431.904 426.74,442.017 435.138,429.5 443.536,432.215 451.934,430.786 460.331,459.794 468.729,311.263 477.127,292.595 485.525,305.477 493.923,319.748 502.32,315.584 510.718,326.453 519.116,334.669 527.514,313.941 535.912,514.991 544.309,794.112 552.707,455.657 561.105,397.26 569.503,418.245 577.901,411.285 586.298,419.979 594.696,409.806 603.094,417.702 611.492,403.571 619.89,399 628.287,467.616 636.685,474.887 645.083,475.508 653.481,493.185 661.878,489.916 670.276,493.199 678.674,499.465 687.072,475.151 695.47,493.042 703.867,494.357 712.265,498.579 720.663,587.691 729.061,646.793 737.459,479.606 745.856,453.617 754.254,482.275 762.652,493.99 771.05,499.091 779.448,628.717 787.845,477.876 796.243,493.334 804.641,505.673 813.039,497.556 821.436,482.341 829.834,480.226 838.232,482.278 846.63,486.947 855.028,502.128 863.425,486.486 871.823,528.343 880.221,526.679 888.619,505.519 897.017,503.529 905.414,524.938 913.812,496.824 922.21,492.321 930.608,511.241 939.006,493.321 947.403,459.237 955.801,425.978 964.199,428.214 972.597,427.428 980.994,418.278 989.392,427.313 997.79,434.318 1006.19,477.987 1014.59,459.564 1022.98,452.818 1031.38,446.374 1039.78,445.328 1048.18,450.083 1056.57,452.57 1064.97,451.214 1073.37,454.796 1081.77,435.563 1090.17,369.7 1098.56,398.754 1106.96,393.516 1115.36,403.189 1123.76,424.648 1132.15,479.539 1140.55,471.223 1148.95,455.397 1157.35,450.582 1165.75,461.32 1174.14,432.362 1182.54,384.247 1190.94,442.497 1199.34,405.088 1207.73,415.874 1216.13,399.548 1224.53,416.355 1232.93,404.212 1241.33,418.999 1249.72,410.182 1258.12,403.72 1266.52,405.441 1274.92,440.02 1283.31,435.066 1291.71,439.333 1300.11,467.548 1308.51,443.841 1316.91,432.752 1325.3,404.518 1333.7,415.266 1342.1,447.854 1350.5,452.395 1358.9,423.623 1367.29,436.855 1375.69,437.977 1384.09,435.994 1392.49,440.554 1400.88,431.184 1409.28,434.939 1417.68,463.451 1426.08,433.396 1434.48,445.244 1442.87,459.625 1451.27,466.264 1459.67,407.228 1468.07,422.555 1476.46,427.481 1484.86,438.505 1493.26,422.431 1501.66,423.333 1510.06,385.552 1518.45,360.707 1526.85,358.863 1535.25,383.564 1543.65,389.92 1552.04,378.088 1560.44,383.022 1568.84,401.307 1577.24,375.829 1585.64,337.745 1594.03,279.906 1602.43,290.048 1610.83,276.568 1619.23,280.679 1627.62,318.092 1636.02,318.394 1644.42,290.729 1652.82,279.74 1661.22,259.019 1669.61,200 1678.01,210.711 1686.41,252.452 1694.81,266.729 1703.2,275.773 1711.6,540.696 1720,655.121 "  style="fill:rgb(0,0,255); fill-opacity:0; stroke:rgb(0,0,255); stroke-opacity:1; stroke-width:4" />
 </g>
 <g id="polyline-ironheart-01 downloads by day uploaders">
<polyline points="200,816.955 208.398,810.69 216.796,807.064 225.193,822.934 233.591,826.72 241.989,829.486 250.387,830.35 258.785,758.36 267.182,749.07 275.58,749.768 283.978,753.191 292.376,753.299 300.773,760.549 309.171,767.358 317.569,778.169 325.967,791.486 334.365,796.761 342.762,805.141 351.16,809.368 359.558,821.951 367.956,829.116 376.354,835.949 384.751,837.147 393.149,839.908 401.547,837.796 409.945,838.545 418.343,839.144 426.74,842.312 435.138,845.311 443.536,843.738 451.934,845.684 460.331,848.544 468.729,848.066 477.127,850.251 485.525,851.136 493.923,852.762 502.32,851.935 510.718,852.101 519.116,853.995 527.514,854.922 535.912,853.773 544.309,855.503 552.707,857.159 561.105,857.919 569.503,863.046 577.901,863.196 586.298,864.747 594.696,865.636 603.094,865.548 611.492,863.072 619.89,865.303 628.287,866.416 636.685,863.468 645.083,866.635 653.481,865.961 661.878,868.123 670.276,867.987 678.674,867.456 687.072,863.91 695.47,866.025 703.867,866.281 712.265,867.227 720.663,868.494 729.061,868.146 737.459,866.12 745.856,866.699 754.254,869.067 762.652,869.499 771.05,870.914 779.448,873.414 787.845,871.244 796.243,871.73 804.641,872.883 813.039,873.474 821.436,873.632 829.834,873.362 838.232,873.545 846.63,873.967 855.028,874.833 863.425,874.275 871.823,875.164 880.221,873.646 888.619,873.957 897.017,874.629 905.414,873.612 913.812,874.32 922.21,874.569 930.608,874.556 939.006,874.686 947.403,875.165 955.801,874.931 964.199,874.594 972.597,875.245 980.994,875.115 989.392,875.025 997.79,875.135 1006.19,875.263 1014.59,875.493 1022.98,875.562 1031.38,875.56 1039.78,875.666 1048.18,875.65 1056.57,875.889 1064.97,875.908 1073.37,875.957 1081.77,875.869 1090.17,876.375 1098.56,876.269 1106.96,876.522 1115.36,876.018 1123.76,876.375 1132.15,876.785 1140.55,876.715 1148.95,876.805 1157.35,877.015 1165.75,876.734 1174.14,876.54 1182.54,877.334 1190.94,877.154 1199.34,877.296 1207.73,877.035 1216.13,877.466 1224.53,877.409 1232.93,877.444 1241.33,877.583 1249.72,877.033 1258.12,877.198 1266.52,878.001 1274.92,877.103 1283.31,877.668 1291.71,877.195 1300.11,877.556 1308.51,877.412 1316.91,876.998 1325.3,877.533 1333.7,877.82 1342.1,877.909 1350.5,877.632 1358.9,877.363 1367.29,879.286 1375.69,879.265 1384.09,877.846 1392.49,878.107 1400.88,878.17 1409.28,878.269 1417.68,878.243 1426.08,878.416 1434.48,878.366 1442.87,878.535 1451.27,878.21 1459.67,878.616 1468.07,878.323 1476.46,878.297 1484.86,878.761 1493.26,878.164 1501.66,878.157 1510.06,878.72 1518.45,878.776 1526.85,878.434 1535.25,878.886 1543.65,879.04 1552.04,878.705 1560.44,879.257 1568.84,879.456 1577.24,879.432 1585.64,879.577 1594.03,879.694 1602.43,879.839 1610.83,879.626 1619.23,879.648 1627.62,878.944 1636.02,879.703 1644.42,879.825 1652.82,879.734 1661.22,879.524 1669.61,879.893 1678.01,879.871 1686.41,879.702 1694.81,879.967 1703.2,880 1711.6,879.956 1720,879.881 " stroke-dasharray="5 15"  style="fill:rgb(0,0,255); fill-opacity:0; stroke:rgb(0,0,255); stroke-opacity:1; stroke-width:4" />
 </g>
</svg>
