<svg xml:space="preserve"
     xmlns="http://www.w3.org/2000/svg"
     xmlns:xlink="http://www.w3.org/1999/xlink"
     xmlns:html="http://www.w3.org/1999/xhtml"
id="minecraft-movie-2025-downloads-by-day-day" x="0px" y="0px"
width="1920.000000px" height="1080.000000px"
viewBox="0 0 1920.000000 1080.000000" enable-background="new 0 0 1920.000000 1080.000000" role="img">
<title>
minecraft-movie-2025-downloads-by-day-day
</title>
<desc>
Daily series for minecraft-movie-2025: upeers_total solid, useeds_total dashed.
</desc>
<title>
minecraft-movie-2025-downloads-by-day-day
</title>
 <g id="annotations">
<text x="960.000000" y="126.000000" font-family="Atkinson Hyperlegible" font-size="26.000000pt" text-anchor="middle" text-align="center" font-weight="600" font-style="normal"  style="fill:rgb(118,118,118); fill-opacity:1; stroke:rgb(118,118,118); stroke-opacity:0; stroke-width:0.5"> minecraft-movie-2025 downloads by day</text>
 <g id="axes-lines">
<text x="960.000000" y="1007.000000" font-family="Atkinson Hyperlegible" font-size="18.000000pt" text-anchor="middle" text-align="center" font-weight="500" font-style="normal"  style="fill:rgb(118,118,118); fill-opacity:1; stroke:rgb(118,118,118); stroke-opacity:0; stroke-width:0.5"> DAY</text>
<text x="73.000000" y="540.000000" font-family="Atkinson Hyperlegible" font-size="18.000000pt" text-anchor="middle" text-align="center" dominant-baseline="central" font-weight="500" font-style="normal"  style="fill:rgb(118,118,118); fill-opacity:1; stroke:rgb(118,118,118); stroke-opacity:0; stroke-width:0.5" transform="rotate(-90,73,540)"> DOWNLOADERS</text>
 </g>
 <g id="tic-y-label-lines">
<line x1="218.000000" y1="792.343322" x2="1702.000000" y2="792.343322" style="fill:rgb(0,0,255); fill-opacity:0; stroke:rgb(242,242,242); stroke-opacity:1; stroke-width:4" />
<line x1="218.000000" y1="724.343322" x2="1702.000000" y2="724.343322" style="fill:rgb(0,0,255); fill-opacity:0; stroke:rgb(242,242,242); stroke-opacity:1; stroke-width:4" />
<line x1="218.000000" y1="656.343322" x2="1702.000000" y2="656.343322" style="fill:rgb(0,0,255); fill-opacity:0; stroke:rgb(242,242,242); stroke-opacity:1; stroke-width:4" />
<line x1="218.000000" y1="588.343322" x2="1702.000000" y2="588.343322" style="fill:rgb(0,0,255); fill-opacity:0; stroke:rgb(242,242,242); stroke-opacity:1; stroke-width:4" />
<line x1="218.000000" y1="520.343322" x2="1702.000000" y2="520.343322" style="fill:rgb(0,0,255); fill-opacity:0; stroke:rgb(242,242,242); stroke-opacity:1; stroke-width:4" />
<line x1="218.000000" y1="452.343322" x2="1702.000000" y2="452.343322" style="fill:rgb(0,0,255); fill-opacity:0; stroke:rgb(242,242,242); stroke-opacity:1; stroke-width:4" />
<line x1="218.000000" y1="384.343322" x2="1702.000000" y2="384.343322" style="fill:rgb(0,0,255); fill-opacity:0; stroke:rgb(242,242,242); stroke-opacity:1; stroke-width:4" />
<line x1="218.000000" y1="316.343322" x2="1702.000000" y2="316.343322" style="fill:rgb(0,0,255); fill-opacity:0; stroke:rgb(242,242,242); stroke-opacity:1; stroke-width:4" />
<line x1="218.000000" y1="248.343322" x2="1702.000000" y2="248.343322" style="fill:rgb(0,0,255); fill-opacity:0; stroke:rgb(242,242,242); stroke-opacity:1; stroke-width:4" />
 </g>
 <g id="tic-x-labels">
<text x="200.000000" y="898.000000" font-family="Atkinson Hyperlegible" font-size="14.000000pt" text-anchor="middle" text-align="center" dominant-baseline="central" font-weight="400" font-style="normal"  style="fill:rgb(118,118,118); fill-opacity:1; stroke:rgb(118,118,118); stroke-opacity:0; stroke-width:0.5"> 1</text>
<text x="273.155080" y="898.000000" font-family="Atkinson Hyperlegible" font-size="14.000000pt" text-anchor="middle" text-align="center" dominant-baseline="central" font-weight="400" font-style="normal"  style="fill:rgb(118,118,118); fill-opacity:1; stroke:rgb(118,118,118); stroke-opacity:0; stroke-width:0.5"> 10</text>
<text x="346.310160" y="898.000000" font-family="Atkinson Hyperlegible" font-size="14.000000pt" text-anchor="middle" text-align="center" dominant-baseline="central" font-weight="400" font-style="normal"  style="fill:rgb(118,118,118); fill-opacity:1; stroke:rgb(118,118,118); stroke-opacity:0; stroke-width:0.5"> 19</text>
<text x="419.465241" y="898.000000" font-family="Atkinson Hyperlegible" font-size="14.000000pt" text-anchor="middle" text-align="center" dominant-baseline="central" font-weight="400" font-style="normal"  style="fill:rgb(118,118,118); fill-opacity:1; stroke:rgb(118,118,118); stroke-opacity:0; stroke-width:0.5"> 28</text>
<text x="492.620321" y="898.000000" font-family="Atkinson Hyperlegible" font-size="14.000000pt" text-anchor="middle" text-align="center" dominant-baseline="central" font-weight="400" font-style="normal"  style="fill:rgb(118,118,118); fill-opacity:1; stroke:rgb(118,118,118); stroke-opacity:0; stroke-width:0.5"> 37</text>
<text x="565.775401" y="898.000000" font-family="Atkinson Hyperlegible" font-size="14.000000pt" text-anchor="middle" text-align="center" dominant-baseline="central" font-weight="400" font-style="normal"  style="fill:rgb(118,118,118); fill-opacity:1; stroke:rgb(118,118,118); stroke-opacity:0; stroke-width:0.5"> 46</text>
<text x="638.930481" y="898.000000" font-family="Atkinson Hyperlegible" font-size="14.000000pt" text-anchor="middle" text-align="center" dominant-baseline="central" font-weight="400" font-style="normal"  style="fill:rgb(118,118,118); fill-opacity:1; stroke:rgb(118,118,118); stroke-opacity:0; stroke-width:0.5"> 55</text>
<text x="712.085561" y="898.000000" font-family="Atkinson Hyperlegible" font-size="14.000000pt" text-anchor="middle" text-align="center" dominant-baseline="central" font-weight="400" font-style="normal"  style="fill:rgb(118,118,118); fill-opacity:1; stroke:rgb(118,118,118); stroke-opacity:0; stroke-width:0.5"> 64</text>
<text x="785.240642" y="898.000000" font-family="Atkinson Hyperlegible" font-size="14.000000pt" text-anchor="middle" text-align="center" dominant-baseline="central" font-weight="400" font-style="normal"  style="fill:rgb(118,118,118); fill-opacity:1; stroke:rgb(118,118,118); stroke-opacity:0; stroke-width:0.5"> 73</text>
<text x="858.395722" y="898.000000" font-family="Atkinson Hyperlegible" font-size="14.000000pt" text-anchor="middle" text-align="center" dominant-baseline="central" font-weight="400" font-style="normal"  style="fill:rgb(118,118,118); fill-opacity:1; stroke:rgb(118,118,118); stroke-opacity:0; stroke-width:0.5"> 82</text>
<text x="931.550802" y="898.000000" font-family="Atkinson Hyperlegible" font-size="14.000000pt" text-anchor="middle" text-align="center" dominant-baseline="central" font-weight="400" font-style="normal"  style="fill:rgb(118,118,118); fill-opacity:1; stroke:rgb(118,118,118); stroke-opacity:0; stroke-width:0.5"> 91</text>
<text x="1004.705882" y="898.000000" font-family="Atkinson Hyperlegible" font-size="14.000000pt" text-anchor="middle" text-align="center" dominant-baseline="central" font-weight="400" font-style="normal"  style="fill:rgb(118,118,118); fill-opacity:1; stroke:rgb(118,118,118); stroke-opacity:0; stroke-width:0.5"> 100</text>
<text x="1077.860963" y="898.000000" font-family="Atkinson Hyperlegible" font-size="14.000000pt" text-anchor="middle" text-align="center" dominant-baseline="central" font-weight="400" font-style="normal"  style="fill:rgb(118,118,118); fill-opacity:1; stroke:rgb(118,118,118); stroke-opacity:0; stroke-width:0.5"> 109</text>
<text x="1151.016043" y="898.000000" font-family="Atkinson Hyperlegible" font-size="14.000000pt" text-anchor="middle" text-align="center" dominant-baseline="central" font-weight="400" font-style="normal"  style="fill:rgb(118,118,118); fill-opacity:1; stroke:rgb(118,118,118); stroke-opacity:0; stroke-width:0.5"> 118</text>
<text x="1224.171123" y="898.000000" font-family="Atkinson Hyperlegible" font-size="14.000000pt" text-anchor="middle" text-align="center" dominant-baseline="central" font-weight="400" font-style="normal"  style="fill:rgb(118,118,118); fill-opacity:1; stroke:rgb(118,118,118); stroke-opacity:0; stroke-width:0.5"> 127</text>
<text x="1297.326203" y="898.000000" font-family="Atkinson Hyperlegible" font-size="14.000000pt" text-anchor="middle" text-align="center" dominant-baseline="central" font-weight="400" font-style="normal"  style="fill:rgb(118,118,118); fill-opacity:1; stroke:rgb(118,118,118); stroke-opacity:0; stroke-width:0.5"> 136</text>
<text x="1370.481283" y="898.000000" font-family="Atkinson Hyperlegible" font-size="14.000000pt" text-anchor="middle" text-align="center" dominant-baseline="central" font-weight="400" font-style="normal"  style="fill:rgb(118,118,118); fill-opacity:1; stroke:rgb(118,118,118); stroke-opacity:0; stroke-width:0.5"> 145</text>
<text x="1443.636364" y="898.000000" font-family="Atkinson Hyperlegible" font-size="14.000000pt" text-anchor="middle" text-align="center" dominant-baseline="central" font-weight="400" font-style="normal"  style="fill:rgb(118,118,118); fill-opacity:1; stroke:rgb(118,118,118); stroke-opacity:0; stroke-width:0.5"> 154</text>
<text x="1516.791444" y="898.000000" font-family="Atkinson Hyperlegible" font-size="14.000000pt" text-anchor="middle" text-align="center" dominant-baseline="central" font-weight="400" font-style="normal"  style="fill:rgb(118,118,118); fill-opacity:1; stroke:rgb(118,118,118); stroke-opacity:0; stroke-width:0.5"> 163</text>
<text x="1589.946524" y="898.000000" font-family="Atkinson Hyperlegible" font-size="14.000000pt" text-anchor="middle" text-align="center" dominant-baseline="central" font-weight="400" font-style="normal"  style="fill:rgb(118,118,118); fill-opacity:1; stroke:rgb(118,118,118); stroke-opacity:0; stroke-width:0.5"> 172</text>
<text x="1663.101604" y="898.000000" font-family="Atkinson Hyperlegible" font-size="14.000000pt" text-anchor="middle" text-align="center" dominant-baseline="central" font-weight="400" font-style="normal"  style="fill:rgb(118,118,118); fill-opacity:1; stroke:rgb(118,118,118); stroke-opacity:0; stroke-width:0.5"> 181</text>
 </g>
 <g id="tic-y-labels">
<text x="164.000000" y="862.343322" font-family="Atkinson Hyperlegible" font-size="14.000000pt" text-anchor="middle" text-align="center" dominant-baseline="central" font-weight="400" font-style="normal"  style="fill:rgb(118,118,118); fill-opacity:1; stroke:rgb(118,118,118); stroke-opacity:0; stroke-width:0.5"> 16k</text>
<text x="1756.000000" y="862.343322" font-family="Atkinson Hyperlegible" font-size="14.000000pt" text-anchor="middle" text-align="center" dominant-baseline="central" font-weight="400" font-style="normal"  style="fill:rgb(118,118,118); fill-opacity:1; stroke:rgb(118,118,118); stroke-opacity:0; stroke-width:0.5"> 16k</text>
<text x="164.000000" y="794.343322" font-family="Atkinson Hyperlegible" font-size="14.000000pt" text-anchor="middle" text-align="center" dominant-baseline="central" font-weight="400" font-style="normal"  style="fill:rgb(118,118,118); fill-opacity:1; stroke:rgb(118,118,118); stroke-opacity:0; stroke-width:0.5"> 80k</text>
<text x="1756.000000" y="794.343322" font-family="Atkinson Hyperlegible" font-size="14.000000pt" text-anchor="middle" text-align="center" dominant-baseline="central" font-weight="400" font-style="normal"  style="fill:rgb(118,118,118); fill-opacity:1; stroke:rgb(118,118,118); stroke-opacity:0; stroke-width:0.5"> 80k</text>
<text x="164.000000" y="726.343322" font-family="Atkinson Hyperlegible" font-size="14.000000pt" text-anchor="middle" text-align="center" dominant-baseline="central" font-weight="400" font-style="normal"  style="fill:rgb(118,118,118); fill-opacity:1; stroke:rgb(118,118,118); stroke-opacity:0; stroke-width:0.5"> 144k</text>
<text x="1756.000000" y="726.343322" font-family="Atkinson Hyperlegible" font-size="14.000000pt" text-anchor="middle" text-align="center" dominant-baseline="central" font-weight="400" font-style="normal"  style="fill:rgb(118,118,118); fill-opacity:1; stroke:rgb(118,118,118); stroke-opacity:0; stroke-width:0.5"> 144k</text>
<text x="164.000000" y="658.343322" font-family="Atkinson Hyperlegible" font-size="14.000000pt" text-anchor="middle" text-align="center" dominant-baseline="central" font-weight="400" font-style="normal"  style="fill:rgb(118,118,118); fill-opacity:1; stroke:rgb(118,118,118); stroke-opacity:0; stroke-width:0.5"> 207k</text>
<text x="1756.000000" y="658.343322" font-family="Atkinson Hyperlegible" font-size="14.000000pt" text-anchor="middle" text-align="center" dominant-baseline="central" font-weight="400" font-style="normal"  style="fill:rgb(118,118,118); fill-opacity:1; stroke:rgb(118,118,118); stroke-opacity:0; stroke-width:0.5"> 207k</text>
<text x="164.000000" y="590.343322" font-family="Atkinson Hyperlegible" font-size="14.000000pt" text-anchor="middle" text-align="center" dominant-baseline="central" font-weight="400" font-style="normal"  style="fill:rgb(118,118,118); fill-opacity:1; stroke:rgb(118,118,118); stroke-opacity:0; stroke-width:0.5"> 271k</text>
<text x="1756.000000" y="590.343322" font-family="Atkinson Hyperlegible" font-size="14.000000pt" text-anchor="middle" text-align="center" dominant-baseline="central" font-weight="400" font-style="normal"  style="fill:rgb(118,118,118); fill-opacity:1; stroke:rgb(118,118,118); stroke-opacity:0; stroke-width:0.5"> 271k</text>
<text x="164.000000" y="522.343322" font-family="Atkinson Hyperlegible" font-size="14.000000pt" text-anchor="middle" text-align="center" dominant-baseline="central" font-weight="400" font-style="normal"  style="fill:rgb(118,118,118); fill-opacity:1; stroke:rgb(118,118,118); stroke-opacity:0; stroke-width:0.5"> 334k</text>
<text x="1756.000000" y="522.343322" font-family="Atkinson Hyperlegible" font-size="14.000000pt" text-anchor="middle" text-align="center" dominant-baseline="central" font-weight="400" font-style="normal"  style="fill:rgb(118,118,118); fill-opacity:1; stroke:rgb(118,118,118); stroke-opacity:0; stroke-width:0.5"> 334k</text>
<text x="164.000000" y="454.343322" font-family="Atkinson Hyperlegible" font-size="14.000000pt" text-anchor="middle" text-align="center" dominant-baseline="central" font-weight="400" font-style="normal"  style="fill:rgb(118,118,118); fill-opacity:1; stroke:rgb(118,118,118); stroke-opacity:0; stroke-width:0.5"> 398k</text>
<text x="1756.000000" y="454.343322" font-family="Atkinson Hyperlegible" font-size="14.000000pt" text-anchor="middle" text-align="center" dominant-baseline="central" font-weight="400" font-style="normal"  style="fill:rgb(118,118,118); fill-opacity:1; stroke:rgb(118,118,118); stroke-opacity:0; stroke-width:0.5"> 398k</text>
<text x="164.000000" y="386.343322" font-family="Atkinson Hyperlegible" font-size="14.000000pt" text-anchor="middle" text-align="center" dominant-baseline="central" font-weight="400" font-style="normal"  style="fill:rgb(118,118,118); fill-opacity:1; stroke:rgb(118,118,118); stroke-opacity:0; stroke-width:0.5"> 461k</text>
<text x="1756.000000" y="386.343322" font-family="Atkinson Hyperlegible" font-size="14.000000pt" text-anchor="middle" text-align="center" dominant-baseline="central" font-weight="400" font-style="normal"  style="fill:rgb(118,118,118); fill-opacity:1; stroke:rgb(118,118,118); stroke-opacity:0; stroke-width:0.5"> 461k</text>
<text x="164.000000" y="318.343322" font-family="Atkinson Hyperlegible" font-size="14.000000pt" text-anchor="middle" text-align="center" dominant-baseline="central" font-weight="400" font-style="normal"  style="fill:rgb(118,118,118); fill-opacity:1; stroke:rgb(118,118,118); stroke-opacity:0; stroke-width:0.5"> 525k</text>
<text x="1756.000000" y="318.343322" font-family="Atkinson Hyperlegible" font-size="14.000000pt" text-anchor="middle" text-align="center" dominant-baseline="central" font-weight="400" font-style="normal"  style="fill:rgb(118,118,118); fill-opacity:1; stroke:rgb(118,118,118); stroke-opacity:0; stroke-width:0.5"> 525k</text>
<text x="164.000000" y="250.343322" font-family="Atkinson Hyperlegible" font-size="14.000000pt" text-anchor="middle" text-align="center" dominant-baseline="central" font-weight="400" font-style="normal"  style="fill:rgb(118,118,118); fill-opacity:1; stroke:rgb(118,118,118); stroke-opacity:0; stroke-width:0.5"> 588k</text>
<text x="1756.000000" y="250.343322" font-family="Atkinson Hyperlegible" font-size="14.000000pt" text-anchor="middle" text-align="center" dominant-baseline="central" font-weight="400" font-style="normal"  style="fill:rgb(118,118,118); fill-opacity:1; stroke:rgb(118,118,118); stroke-opacity:0; stroke-width:0.5"> 588k</text>
 </g>
 </g>
 <g id="weekend-bands-minecraft-movie-2025 downloads by day">
<rect x="208.128342" y="200.000000" width="16.256684" height="680.000000"
 style="fill:rgb(148,148,148); fill-opacity:0.15; stroke:rgb(148,148,148); stroke-opacity:0; stroke-width:0" />
<rect x="265.026738" y="200.000000" width="16.256684" height="680.000000"
 style="fill:rgb(148,148,148); fill-opacity:0.15; stroke:rgb(148,148,148); stroke-opacity:0; stroke-width:0" />
<rect x="321.925134" y="200.000000" width="16.256684" height="680.000000"
 style="fill:rgb(148,148,148); fill-opacity:0.15; stroke:rgb(148,148,148); stroke-opacity:0; stroke-width:0" />
<rect x="378.823529" y="200.000000" width="16.256684" height="680.000000"
 style="fill:rgb(148,148,148); fill-opacity:0.15; stroke:rgb(148,148,148); stroke-opacity:0; stroke-width:0" />
<rect x="435.721925" y="200.000000" width="16.256684" height="680.000000"
 style="fill:rgb(148,148,148); fill-opacity:0.15; stroke:rgb(148,148,148); stroke-opacity:0; stroke-width:0" />
<rect x="492.620321" y="200.000000" width="16.256684" height="680.000000"
 style="fill:rgb(148,148,148); fill-opacity:0.15; stroke:rgb(148,148,148); stroke-opacity:0; stroke-width:0" />
<rect x="549.518717" y="200.000000" width="16.256684" height="680.000000"
 style="fill:rgb(148,148,148); fill-opacity:0.15; stroke:rgb(148,148,148); stroke-opacity:0; stroke-width:0" />
<rect x="606.417112" y="200.000000" width="16.256684" height="680.000000"
 style="fill:rgb(148,148,148); fill-opacity:0.15; stroke:rgb(148,148,148); stroke-opacity:0; stroke-width:0" />
<rect x="663.315508" y="200.000000" width="16.256684" height="680.000000"
 style="fill:rgb(148,148,148); fill-opacity:0.15; stroke:rgb(148,148,148); stroke-opacity:0; stroke-width:0" />
<rect x="720.213904" y="200.000000" width="16.256684" height="680.000000"
 style="fill:rgb(148,148,148); fill-opacity:0.15; stroke:rgb(148,148,148); stroke-opacity:0; stroke-width:0" />
<rect x="777.112299" y="200.000000" width="16.256684" height="680.000000"
 style="fill:rgb(148,148,148); fill-opacity:0.15; stroke:rgb(148,148,148); stroke-opacity:0; stroke-width:0" />
<rect x="834.010695" y="200.000000" width="16.256684" height="680.000000"
 style="fill:rgb(148,148,148); fill-opacity:0.15; stroke:rgb(148,148,148); stroke-opacity:0; stroke-width:0" />
<rect x="890.909091" y="200.000000" width="16.256684" height="680.000000"
 style="fill:rgb(148,148,148); fill-opacity:0.15; stroke:rgb(148,148,148); stroke-opacity:0; stroke-width:0" />
<rect x="947.807487" y="200.000000" width="16.256684" height="680.000000"
 style="fill:rgb(148,148,148); fill-opacity:0.15; stroke:rgb(148,148,148); stroke-opacity:0; stroke-width:0" />
<rect x="1004.705882" y="200.000000" width="16.256684" height="680.000000"
 style="fill:rgb(148,148,148); fill-opacity:0.15; stroke:rgb(148,148,148); stroke-opacity:0; stroke-width:0" />
<rect x="1061.604278" y="200.000000" width="16.256684" height="680.000000"
 style="fill:rgb(148,148,148); fill-opacity:0.15; stroke:rgb(148,148,148); stroke-opacity:0; stroke-width:0" />
<rect x="1118.502674" y="200.000000" width="16.256684" height="680.000000"
 style="fill:rgb(148,148,148); fill-opacity:0.15; stroke:rgb(148,148,148); stroke-opacity:0; stroke-width:0" />
<rect x="1175.401070" y="200.000000" width="16.256684" height="680.000000"
 style="fill:rgb(148,148,148); fill-opacity:0.15; stroke:rgb(148,148,148); stroke-opacity:0; stroke-width:0" />
<rect x="1232.299465" y="200.000000" width="16.256684" height="680.000000"
 style="fill:rgb(148,148,148); fill-opacity:0.15; stroke:rgb(148,148,148); stroke-opacity:0; stroke-width:0" />
<rect x="1289.197861" y="200.000000" width="16.256684" height="680.000000"
 style="fill:rgb(148,148,148); fill-opacity:0.15; stroke:rgb(148,148,148); stroke-opacity:0; stroke-width:0" />
<rect x="1346.096257" y="200.000000" width="16.256684" height="680.000000"
 style="fill:rgb(148,148,148); fill-opacity:0.15; stroke:rgb(148,148,148); stroke-opacity:0; stroke-width:0" />
<rect x="1402.994652" y="200.000000" width="16.256684" height="680.000000"
 style="fill:rgb(148,148,148); fill-opacity:0.15; stroke:rgb(148,148,148); stroke-opacity:0; stroke-width:0" />
<rect x="1451.764706" y="200.000000" width="16.256684" height="680.000000"
 style="fill:rgb(148,148,148); fill-opacity:0.15; stroke:rgb(148,148,148); stroke-opacity:0; stroke-width:0" />
<rect x="1508.663102" y="200.000000" width="16.256684" height="680.000000"
 style="fill:rgb(148,148,148); fill-opacity:0.15; stroke:rgb(148,148,148); stroke-opacity:0; stroke-width:0" />
<rect x="1565.561497" y="200.000000" width="16.256684" height="680.000000"
 style="fill:rgb(148,148,148); fill-opacity:0.15; stroke:rgb(148,148,148); stroke-opacity:0; stroke-width:0" />
<rect x="1622.459893" y="200.000000" width="16.256684" height="680.000000"
 style="fill:rgb(148,148,148); fill-opacity:0.15; stroke:rgb(148,148,148); stroke-opacity:0; stroke-width:0" />
<rect x="1679.358289" y="200.000000" width="16.256684" height="680.000000"
 style="fill:rgb(148,148,148); fill-opacity:0.15; stroke:rgb(148,148,148); stroke-opacity:0; stroke-width:0" />
 </g>
 <g id="polyline-minecraft-movie-2025 downloads by day">
<polyline points="200,537.827 208.128,501.207 216.257,478.599 224.385,438.8 232.513,492.829 240.642,446.354 248.77,354.437 256.898,322.265 265.027,258.558 273.155,206.676 281.283,202.198 289.412,239.22 297.54,230.643 305.668,270.614 313.797,289.664 321.925,282.943 330.053,280.416 338.182,262.174 346.31,300.406 354.439,310.31 362.567,301.921 370.695,302.55 378.824,313.84 386.952,280.101 395.08,298.757 403.209,317.454 411.337,278.148 419.465,277.259 427.594,321.484 435.722,309.359 443.85,302.156 451.979,286.382 460.107,317.696 468.235,342.793 476.364,303.393 484.492,316.289 492.62,299.23 500.749,295.195 508.877,296.482 517.005,301.747 525.134,286.849 533.262,327.482 541.39,291.411 549.519,282.456 557.647,313.168 565.775,301.462 573.904,306.681 582.032,275.267 590.16,282.188 598.289,315.471 606.417,344.401 614.545,353.105 622.674,345.792 630.802,349.243 638.93,333.349 647.059,342.13 655.187,359.197 663.316,365.893 671.444,307.357 679.572,353.547 687.701,349.024 695.829,345.987 703.957,365.138 712.086,369.516 720.214,364.253 728.342,337.419 736.471,385.471 744.599,402.715 752.727,375.743 760.856,403.008 768.984,413.639 777.112,408.245 785.241,396.268 793.369,200 801.497,212.782 809.626,221.253 817.754,230.069 825.882,245.679 834.011,248.232 842.139,218.212 850.267,238.944 858.396,435.41 866.524,754.318 874.652,353.5 882.781,297.372 890.909,325.581 899.037,352.241 907.166,327.808 915.294,312.13 923.422,306.235 931.551,319.757 939.679,307.063 947.807,387.895 955.936,386.796 964.064,396.56 972.193,449.142 980.321,396.568 988.449,398.614 996.578,393.6 1004.71,407.5 1012.83,421.813 1020.96,414.606 1029.09,423.58 1037.22,525.941 1045.35,600.809 1053.48,397.298 1061.6,373.108 1069.73,386.31 1077.86,364.698 1085.99,380.624 1094.12,387.178 1102.25,388.261 1110.37,401.273 1118.5,385.352 1126.63,383.952 1134.76,388.797 1142.89,389.098 1151.02,383.281 1159.14,360.556 1167.27,379.064 1175.4,351.154 1183.53,399.525 1191.66,415.005 1199.79,409.364 1207.91,399.211 1216.04,382.062 1224.17,379.724 1232.3,390.557 1240.43,402.909 1248.56,378.068 1256.68,322.679 1264.81,319.444 1272.94,346.115 1281.07,327.167 1289.2,309.08 1297.33,316.834 1305.45,302.341 1313.58,330.315 1321.71,309.407 1329.84,304.846 1337.97,280.978 1346.1,289.666 1354.22,282.924 1362.35,310.23 1370.48,309.604 1378.61,306.858 1386.74,295.58 1394.87,271.152 1402.99,249.806 1411.12,230.486 1419.25,263.146 1427.38,758.569 1435.51,725.46 1443.64,326.315 1451.76,352.318 1459.89,335.69 1468.02,331.827 1476.15,303.812 1484.28,323.929 1492.41,290.233 1500.53,302.415 1508.66,271.853 1516.79,283.942 1524.92,277.263 1533.05,291.889 1541.18,293.616 1549.3,307.153 1557.43,307.935 1565.56,322.569 1573.69,329.471 1581.82,331.49 1589.95,353.218 1598.07,352.957 1606.2,285.107 1614.33,325.918 1622.46,344.822 1630.59,336.007 1638.72,321.797 1646.84,305.764 1654.97,305.231 1663.1,315.493 1671.23,321.846 1679.36,309.879 1687.49,296.09 1695.61,308.224 1703.74,310.895 1711.87,303.59 1720,317.491 "  style="fill:rgb(0,0,255); fill-opacity:0; stroke:rgb(0,0,255); stroke-opacity:1; stroke-width:4" />
 </g>
 <g id="polyline-minecraft-movie-2025 downloads by day uploaders">
<polyline points="200,770.601 208.128,761.983 216.257,753.67 224.385,731.597 232.513,754.349 240.642,754.033 248.77,753.831 256.898,744.206 265.027,733.49 273.155,718.455 281.283,718.677 289.412,734.732 297.54,744.111 305.668,742.079 313.797,754.495 321.925,757.799 330.053,748.166 338.182,748.717 346.31,761.158 354.439,768.349 362.567,767.97 370.695,770.792 378.824,770.956 386.952,762.258 395.08,771.608 403.209,779.093 411.337,776 419.465,777.322 427.594,787.028 435.722,785.373 443.85,781.387 451.979,782.232 460.107,787.811 468.235,792.567 476.364,792.868 484.492,794.375 492.62,793.636 500.749,789.449 508.877,793.785 517.005,792.281 525.134,797.288 533.262,798.739 541.39,802.079 549.519,795.642 557.647,799.857 565.775,800.954 573.904,801.047 582.032,806.102 590.16,811.155 598.289,813.929 606.417,815.459 614.545,815.032 622.674,811.608 630.802,820.114 638.93,819.466 647.059,821.391 655.187,821.551 663.316,821.947 671.444,805.037 679.572,819.659 687.701,812.97 695.829,823.761 703.957,825.171 712.086,826.804 720.214,824.129 728.342,823.151 736.471,838.481 744.599,840.293 752.727,827.086 760.856,840.018 768.984,840.997 777.112,840.055 785.241,839.077 793.369,838.99 801.497,841.951 809.626,840.471 817.754,839.445 825.882,843.411 834.011,843.519 842.139,842.708 850.267,841.868 858.396,841.561 866.524,841.84 874.652,844.226 882.781,843.394 890.909,845.313 899.037,846.519 907.166,846.445 915.294,847.425 923.422,847.013 931.551,848.673 939.679,847.559 947.807,847.367 955.936,847.135 964.064,848.91 972.193,850.513 980.321,849.983 988.449,851.958 996.578,852.372 1004.71,850.964 1012.83,852.505 1020.96,850.342 1029.09,851.371 1037.22,852.381 1045.35,852.452 1053.48,855.138 1061.6,853.179 1069.73,854.074 1077.86,854.767 1085.99,855.421 1094.12,854.784 1102.25,855.224 1110.37,857.712 1118.5,858.624 1126.63,858.25 1134.76,858.66 1142.89,859.992 1151.02,860.834 1159.14,861.343 1167.27,861.53 1175.4,860.861 1183.53,860.592 1191.66,860.47 1199.79,861.629 1207.91,861.959 1216.04,861.506 1224.17,861.07 1232.3,859.921 1240.43,858.489 1248.56,857.819 1256.68,860.115 1264.81,859.084 1272.94,858.641 1281.07,858.735 1289.2,858.342 1297.33,858.047 1305.45,857.583 1313.58,858.296 1321.71,860.317 1329.84,861.514 1337.97,861.155 1346.1,860.124 1354.22,859.118 1362.35,858.992 1370.48,859.375 1378.61,860.866 1386.74,860.204 1394.87,860.38 1402.99,860.967 1411.12,860.593 1419.25,860.782 1427.38,879.499 1435.51,880 1443.64,864.031 1451.76,862.917 1459.89,861.684 1468.02,861.298 1476.15,864.93 1484.28,864.896 1492.41,865.52 1500.53,866.073 1508.66,865.271 1516.79,863.792 1524.92,863.023 1533.05,864.971 1541.18,865.707 1549.3,865.978 1557.43,866.298 1565.56,865.999 1573.69,866.672 1581.82,864.468 1589.95,866.478 1598.07,866.244 1606.2,866.579 1614.33,867.584 1622.46,866.877 1630.59,865.094 1638.72,865.294 1646.84,867.147 1654.97,868.347 1663.1,869.272 1671.23,869.493 1679.36,868.626 1687.49,868.017 1695.61,868.018 1703.74,868.791 1711.87,869.274 1720,870.246 " stroke-dasharray="5 15"  style="fill:rgb(0,0,255); fill-opacity:0; stroke:rgb(0,0,255); stroke-opacity:1; stroke-width:4" />
 </g>
</svg>
